<svg width="41" height="41" viewBox="0 0 41 41" fill="none" xmlns="http://www.w3.org/2000/svg">
<path d="M34.1665 6.20254C34.1665 5.49195 33.8884 4.82329 33.3841 4.31893C32.7918 3.72725 31.9772 3.44404 31.1385 3.56353C30.5866 3.63842 30.0915 3.88726 29.701 4.24662C29.6781 4.26769 29.6517 4.28496 29.6296 4.30679C29.5995 4.33645 29.5754 4.37142 29.5468 4.40247C29.1951 4.78409 28.949 5.26364 28.8712 5.79871C28.8442 5.93945 28.8339 6.05778 28.8339 6.20254V7.9684H34.1665V6.20254Z" fill="black" style="fill:black;fill-opacity:1;"/>
<path d="M6.30859 17.4551H11.9392V23.0857H6.30859V17.4551Z" fill="black" style="fill:black;fill-opacity:1;"/>
<path d="M7.04973 37.3979V34.3506L4.0166 34.3758L7.04973 37.3979Z" fill="black" style="fill:black;fill-opacity:1;"/>
<path d="M23.3998 33.0571L24.2918 32.165L22.1875 30.061L21.2956 30.9529L20.751 33.6023L23.3998 33.0571Z" fill="black" style="fill:black;fill-opacity:1;"/>
<path d="M38.0681 16.2846C37.5063 15.7228 36.5263 15.7228 35.9645 16.2846L23.0197 29.229L25.124 31.3329L27.8064 28.6505C27.8246 28.6296 27.843 28.6112 27.8639 28.593L38.0681 18.3888C38.349 18.1074 38.5041 17.734 38.5041 17.3365C38.5041 16.9395 38.3496 16.5655 38.0681 16.2846Z" fill="black" style="fill:black;fill-opacity:1;"/>
<path d="M23.8097 34.1737L20.1137 34.9343C20.0746 34.9423 20.035 34.9463 19.9953 34.9463C19.8408 34.9463 19.6909 34.8854 19.5794 34.774C19.4393 34.6344 19.3795 34.4333 19.4192 34.2397L20.1792 30.5432C20.2021 30.4306 20.2579 30.3272 20.3394 30.2456L27.6573 22.928V8.55673V6.20264V5.75801C27.6573 5.65519 27.6843 5.55466 27.7343 5.46677C27.75 5.38444 27.778 5.30686 27.799 5.22643C27.8233 5.13104 27.8438 5.03485 27.8755 4.94237C27.8933 4.8907 27.9182 4.84274 27.9382 4.79208C28.0995 4.38088 28.3313 4.00555 28.6214 3.67639C28.6615 3.63072 28.6962 3.58035 28.7385 3.53662H5.87598C4.40596 3.53662 3.20996 4.73262 3.20996 6.20264V33.2109H7.08691C7.71536 33.2109 8.22662 33.7222 8.22662 34.3506V38.2349L26.9634 38.2241C27.346 38.2241 27.6573 37.9128 27.6573 37.5302V30.4633L24.1072 34.0134C24.0257 34.095 23.9228 34.1507 23.8097 34.1737ZM24.6444 24.5591H15.2889C14.9638 24.5591 14.7007 24.296 14.7007 23.9709C14.7007 23.6458 14.9638 23.3827 15.2889 23.3827H24.6444C24.9695 23.3827 25.2326 23.6458 25.2326 23.9709C25.2326 24.296 24.9695 24.5591 24.6444 24.5591ZM24.6444 21.0969H15.2889C14.9638 21.0969 14.7007 20.8338 14.7007 20.5087C14.7007 20.1836 14.9638 19.9205 15.2889 19.9205H24.6444C24.9695 19.9205 25.2326 20.1836 25.2326 20.5087C25.2326 20.8338 24.9695 21.0969 24.6444 21.0969ZM24.6444 17.6347H15.2889C14.9638 17.6347 14.7007 17.3716 14.7007 17.0465C14.7007 16.7214 14.9638 16.4583 15.2889 16.4583H24.6444C24.9695 16.4583 25.2326 16.7214 25.2326 17.0465C25.2326 17.3716 24.9695 17.6347 24.6444 17.6347ZM5.93285 6.07109H24.6444C24.9695 6.07109 25.2326 6.33419 25.2326 6.65932C25.2326 6.98446 24.9695 7.24756 24.6444 7.24756H5.93285C5.608 7.24756 5.34461 6.98446 5.34461 6.65932C5.34461 6.33419 5.608 6.07109 5.93285 6.07109ZM5.93285 9.53329H24.6444C24.9695 9.53329 25.2326 9.79639 25.2326 10.1215C25.2326 10.4467 24.9695 10.7098 24.6444 10.7098H5.93285C5.608 10.7098 5.34461 10.4467 5.34461 10.1215C5.34461 9.79639 5.608 9.53329 5.93285 9.53329ZM5.93285 12.9961H24.6444C24.9695 12.9961 25.2326 13.2592 25.2326 13.5843C25.2326 13.9094 24.9695 14.1725 24.6444 14.1725H5.93285C5.608 14.1725 5.34461 13.9094 5.34461 13.5843C5.34461 13.2592 5.608 12.9961 5.93285 12.9961ZM5.13178 23.6739V16.8667C5.13178 16.5416 5.39516 16.2785 5.72001 16.2785H12.5269C12.8521 16.2785 13.1152 16.5416 13.1152 16.8667V23.6739C13.1152 23.9991 12.8521 24.2621 12.5269 24.2621H5.72001C5.39516 24.2621 5.13178 23.9991 5.13178 23.6739ZM16.7664 34.9463H12.2713C11.9462 34.9463 11.6831 34.6832 11.6831 34.3581C11.6831 34.0329 11.9462 33.7698 12.2713 33.7698H16.7664C17.0915 33.7698 17.3546 34.0329 17.3546 34.3581C17.3546 34.6832 17.0915 34.9463 16.7664 34.9463ZM16.7664 31.4835H5.93285C5.608 31.4835 5.34461 31.2204 5.34461 30.8953C5.34461 30.5702 5.608 30.3071 5.93285 30.3071H16.7664C17.0915 30.3071 17.3546 30.5702 17.3546 30.8953C17.3546 31.2204 17.0915 31.4835 16.7664 31.4835ZM16.7664 28.0213H5.93285C5.608 28.0213 5.34461 27.7582 5.34461 27.4331C5.34461 27.108 5.608 26.8449 5.93285 26.8449H16.7664C17.0915 26.8449 17.3546 27.108 17.3546 27.4331C17.3546 27.7582 17.0915 28.0213 16.7664 28.0213Z" fill="black" style="fill:black;fill-opacity:1;"/>
</svg>
