<svg width="68" height="67" viewBox="0 0 68 67" fill="none" xmlns="http://www.w3.org/2000/svg">
<path d="M65.25 63.7793H63.1667C62.5906 63.7793 62.125 64.2449 62.125 64.821C62.125 65.397 62.5906 65.8626 63.1667 65.8626H65.25C65.826 65.8626 66.2917 65.397 66.2917 64.821C66.2917 64.2449 65.826 63.7793 65.25 63.7793Z" fill="#DEDFE0" style="fill:#DEDFE0;fill:color(display-p3 0.8706 0.8745 0.8784);fill-opacity:1;"/>
<path d="M2.7487 65.8626H4.83203C5.40807 65.8626 5.8737 65.397 5.8737 64.821C5.8737 64.2449 5.40807 63.7793 4.83203 63.7793H2.7487C2.17266 63.7793 1.70703 64.2449 1.70703 64.821C1.70703 65.397 2.17266 65.8626 2.7487 65.8626Z" fill="#DEDFE0" style="fill:#DEDFE0;fill:color(display-p3 0.8706 0.8745 0.8784);fill-opacity:1;"/>
<path d="M18.3737 55.446H12.1237C10.9747 55.446 10.0404 56.3803 10.0404 57.5293V63.7793H8.9987C8.42266 63.7793 7.95703 64.2449 7.95703 64.821C7.95703 65.397 8.42266 65.8626 8.9987 65.8626H58.9987C59.5747 65.8626 60.0404 65.397 60.0404 64.821C60.0404 64.2449 59.5747 63.7793 58.9987 63.7793H57.957V28.3626C57.957 27.2137 57.0227 26.2793 55.8737 26.2793H49.6237C48.4747 26.2793 47.5404 27.2137 47.5404 28.3626V63.7793H45.457V38.7793C45.457 37.6303 44.5227 36.696 43.3737 36.696H37.1237C35.9747 36.696 35.0404 37.6303 35.0404 38.7793V63.7793H32.957V50.2376C32.957 49.0887 32.0227 48.1543 30.8737 48.1543H24.6237C23.4747 48.1543 22.5404 49.0887 22.5404 50.2376V63.7793H20.457V57.5293C20.457 56.3803 19.5227 55.446 18.3737 55.446ZM12.1237 57.5293H18.3737V63.7793H12.1237V57.5293ZM49.6237 28.3626H55.8737V63.7793H49.6237V28.3626ZM37.1237 38.7793H43.3737V63.7793H37.1237V38.7793ZM24.6237 50.2376H30.8737V63.7793H24.6237V50.2376Z" fill="#DEDFE0" style="fill:#DEDFE0;fill:color(display-p3 0.8706 0.8745 0.8784);fill-opacity:1;"/>
<path d="M2.74896 58.5711C3.01562 58.5711 3.28229 58.469 3.48542 58.2659L7.65208 54.0992C8.05937 53.6919 8.05937 53.0336 7.65208 52.6263C7.24479 52.219 6.58646 52.219 6.17917 52.6263L2.0125 56.7929C1.60521 57.2002 1.60521 57.8586 2.0125 58.2659C2.21562 58.469 2.48229 58.5711 2.74896 58.5711Z" fill="#DEDFE0" style="fill:#DEDFE0;fill:color(display-p3 0.8706 0.8745 0.8784);fill-opacity:1;"/>
<path d="M65.6469 4.48451C65.5198 4.43138 65.3844 4.4043 65.249 4.4043H61.0823C60.5062 4.4043 60.0406 4.87096 60.0406 5.44596C60.0406 6.02096 60.5062 6.48763 61.0823 6.48763H62.7344L37.7344 31.4876H32.9573C32.6802 31.4876 32.4156 31.597 32.2208 31.7928L21.0677 42.946H16.2906C16.0135 42.946 15.749 43.0553 15.5542 43.2512L8.2625 50.5428C7.85521 50.9501 7.85521 51.6085 8.2625 52.0158C8.46562 52.2189 8.73229 52.321 8.99896 52.321C9.26562 52.321 9.53229 52.2189 9.73542 52.0158L16.7219 45.0293H21.499C21.776 45.0293 22.0406 44.9199 22.2354 44.7241L33.3885 33.571H38.1656C38.4427 33.571 38.7073 33.4616 38.9021 33.2658L64.2073 7.96055V9.61263C64.2073 10.1876 64.6729 10.6543 65.249 10.6543C65.825 10.6543 66.2906 10.1876 66.2906 9.61263V5.44596C66.2906 5.31055 66.2635 5.17513 66.2104 5.04805C66.1052 4.79284 65.9021 4.58971 65.6469 4.48451Z" fill="#DEDFE0" style="fill:#DEDFE0;fill:color(display-p3 0.8706 0.8745 0.8784);fill-opacity:1;"/>
<path d="M17.332 32.5293C25.9477 32.5293 32.957 25.5199 32.957 16.9043C32.957 8.28867 25.9477 1.2793 17.332 1.2793C8.71641 1.2793 1.70703 8.28867 1.70703 16.9043C1.70703 25.5199 8.71641 32.5293 17.332 32.5293ZM17.332 3.36263C24.7987 3.36263 30.8737 9.43763 30.8737 16.9043C30.8737 24.371 24.7987 30.446 17.332 30.446C9.86536 30.446 3.79036 24.371 3.79036 16.9043C3.79036 9.43763 9.86536 3.36263 17.332 3.36263Z" fill="#DEDFE0" style="fill:#DEDFE0;fill:color(display-p3 0.8706 0.8745 0.8784);fill-opacity:1;"/>
<path d="M17.3307 22.1126H14.2057C13.6297 22.1126 13.1641 22.5793 13.1641 23.1543C13.1641 23.7293 13.6297 24.196 14.2057 24.196H16.2891V25.2376C16.2891 25.8126 16.7547 26.2793 17.3307 26.2793C17.9068 26.2793 18.3724 25.8126 18.3724 25.2376V24.048C20.1651 23.5824 21.4974 21.9647 21.4974 20.0293C21.4974 17.7314 19.6286 15.8626 17.3307 15.8626C16.1818 15.8626 15.2474 14.9283 15.2474 13.7793C15.2474 12.6303 16.1818 11.696 17.3307 11.696H20.4557C21.0318 11.696 21.4974 11.2293 21.4974 10.6543C21.4974 10.0793 21.0318 9.61263 20.4557 9.61263H18.3724V8.57096C18.3724 7.99596 17.9068 7.5293 17.3307 7.5293C16.7547 7.5293 16.2891 7.99596 16.2891 8.57096V9.76055C14.4964 10.2262 13.1641 11.8439 13.1641 13.7793C13.1641 16.0772 15.0328 17.946 17.3307 17.946C18.4797 17.946 19.4141 18.8803 19.4141 20.0293C19.4141 21.1783 18.4797 22.1126 17.3307 22.1126Z" fill="#DEDFE0" style="fill:#DEDFE0;fill:color(display-p3 0.8706 0.8745 0.8784);fill-opacity:1;"/>
</svg>
