<svg width="68" height="67" viewBox="0 0 68 67" fill="none" xmlns="http://www.w3.org/2000/svg">
<g clip-path="url(#clip0_110_9310)">
<path d="M26.1968 34.6064C26.5393 34.6064 26.8568 34.427 27.0334 34.1335L28.7952 31.2071L31.1299 34.917C31.3124 35.2072 31.6314 35.3795 31.9769 35.3732C32.3197 35.3661 32.6337 35.1796 32.804 34.882L36.5624 28.3148L41.6104 37.514C41.7788 37.821 42.0989 38.0144 42.4492 38.0206C42.4549 38.0206 42.4607 38.0208 42.4665 38.0208C42.8101 38.0208 43.1291 37.8399 43.3054 37.5439L46.4503 32.2645H54.0339C54.5732 32.2645 55.0105 31.8273 55.0105 31.288C55.0105 30.7486 54.5732 30.3114 54.0339 30.3114H45.8954C45.5512 30.3114 45.2325 30.4925 45.0564 30.7882L42.5012 35.0775L37.4365 25.8476C37.2665 25.5378 36.9425 25.3441 36.5891 25.3408C36.5861 25.3408 36.5833 25.3408 36.5803 25.3408C36.2303 25.3408 35.9068 25.5282 35.7327 25.8322L31.9166 32.5002L29.6033 28.8243C29.4244 28.54 29.1123 28.3679 28.7768 28.3679C28.7736 28.3679 28.7704 28.3679 28.7671 28.3679C28.4281 28.3712 28.115 28.5502 27.9402 28.8407L25.6449 32.6533H20.0947C19.5554 32.6533 19.1182 33.0906 19.1182 33.6299C19.1182 34.1692 19.5554 34.6064 20.0947 34.6064H26.1968Z" fill="#001B57" style="fill:#001B57;fill:color(display-p3 0.0000 0.1059 0.3412);fill-opacity:1;"/>
<path d="M55.7574 7.50293C55.2181 7.50293 54.7809 7.94017 54.7809 8.47949V11.3602H51.9004C51.3611 11.3602 50.9238 11.7975 50.9238 12.3368C50.9238 12.8761 51.3611 13.3133 51.9004 13.3133H54.7809V16.1942C54.7809 16.7335 55.2181 17.1708 55.7574 17.1708C56.2967 17.1708 56.734 16.7335 56.734 16.1942V13.3133H59.6145C60.1538 13.3133 60.591 12.8761 60.591 12.3368C60.591 11.7975 60.1538 11.3602 59.6145 11.3602H56.734V8.47949C56.734 7.94017 56.2967 7.50293 55.7574 7.50293Z" fill="#001B57" style="fill:#001B57;fill:color(display-p3 0.0000 0.1059 0.3412);fill-opacity:1;"/>
<path d="M59.2034 40.9616C63.9611 35.8753 65.3247 28.184 62.7094 21.5902C65.5158 19.4751 67.3337 16.1143 67.3337 12.3365C67.3337 5.95299 62.1407 0.759766 55.7576 0.759766C53.1356 0.759766 50.568 1.65964 48.5277 3.29362C48.1067 3.63073 48.0387 4.24531 48.3758 4.66628C48.713 5.08711 49.3275 5.15521 49.7485 4.8181C51.4683 3.44076 53.5462 2.71289 55.7575 2.71289C61.0635 2.71289 65.3804 7.03008 65.3804 12.3365C65.3804 17.6451 61.0636 21.9638 55.7575 21.9638C50.817 21.9638 46.7359 18.2219 46.1939 13.4236C46.1929 13.4125 46.1911 13.4013 46.1896 13.3901C46.1518 13.0439 46.1308 12.6926 46.1308 12.3365C46.1308 10.8292 46.4695 9.38776 47.1372 8.05208C47.3783 7.56966 47.1827 6.98307 46.7005 6.7418C46.2176 6.50078 45.6314 6.69622 45.3902 7.17852C44.5856 8.78776 44.1777 10.5232 44.1777 12.3363C44.1777 12.5004 44.182 12.6634 44.1887 12.8259C41.7229 13.7073 39.4212 15.1569 37.4922 17.0539L36.4128 18.1151C36.4076 18.1099 36.4037 18.106 36.3985 18.1008L35.3373 17.0552C31.9037 13.6698 27.4089 11.7779 23.004 11.869C19.3386 11.9445 16.0951 13.3807 13.6251 16.0214C13.2566 16.4159 13.2774 17.0344 13.6719 17.4029C14.0665 17.7701 14.6837 17.7505 15.0521 17.356C17.1537 15.1086 19.9167 13.8859 23.0443 13.8221C26.9245 13.7427 30.905 15.4289 33.9662 18.4458L35.0287 19.4927C35.5417 19.9979 35.9792 20.2492 36.4154 20.2492C36.8477 20.2492 37.2787 20.0018 37.7826 19.507L38.862 18.4458C40.4841 16.8516 42.3972 15.6102 44.4454 14.8139C45.583 20.0129 50.2225 23.9168 55.7574 23.9168C57.6523 23.9168 59.4422 23.459 61.0226 22.648C63.1865 28.4685 61.9441 35.1645 57.7839 39.6189L43.7646 53.9694L42.6045 54.196C42.3232 54.2507 42.0745 54.3001 41.848 54.3457C40.3766 54.6439 40.0251 54.7142 38.3024 54.4486L29.9495 52.9212C28.8115 52.528 28.9261 51.6217 28.9899 51.3496C29.0902 50.9264 29.4834 50.2428 30.3284 50.3704C30.3363 50.3717 30.3441 50.373 30.3519 50.3744C30.7282 50.4225 31.1318 50.4746 31.5537 50.528C33.1357 50.7324 34.9274 50.9629 36.5186 51.1257C39.7738 51.4551 41.6149 49.7467 41.9977 47.9056C42.387 46.0293 41.318 43.5345 38.0498 42.4915C38.0107 42.4798 37.9704 42.4694 37.9287 42.4616L32.5498 41.4746C29.6305 40.9395 27.3597 41.3522 23.9222 41.9772C23.0133 42.1426 21.9821 42.3288 20.8337 42.5176L18.2842 42.9369L17.499 42.1335L15.0446 39.6204C10.4574 34.7025 9.44043 26.9994 12.5758 20.8835C12.8219 20.4043 12.6318 19.8158 12.1527 19.5697C11.6722 19.3236 11.0837 19.5124 10.8376 19.9928C7.33236 26.8314 8.47819 35.4538 13.6253 40.9616C13.6305 40.9668 13.6357 40.972 13.6396 40.9772L15.9313 43.3236L11.6633 44.0251V43.9137C11.6633 43.1596 10.9981 42.5462 10.1804 42.5462H2.14616C1.33053 42.5462 0.666992 43.1596 0.666992 43.9137V61.0966C0.666992 61.8507 1.33053 62.4641 2.14616 62.4641H10.1805C10.9982 62.4641 11.6635 61.8507 11.6635 61.0966V60.9783L20.4456 63.3678L28.5524 65.571C30.4027 66.1452 31.8936 66.3822 33.2542 66.3822C35.4079 66.3822 37.2373 65.791 39.654 65.0098C39.8688 64.9408 40.0889 64.8691 40.3154 64.7962L56.2907 59.6738C58.1423 59.0801 59.46 57.7467 59.8141 56.1074C60.0889 54.8366 59.7061 53.5814 58.7894 52.7494C58.0472 52.0762 56.3024 51.11 52.9391 52.1738L47.1396 53.3079L59.1891 40.9772C59.1943 40.972 59.1982 40.9668 59.2034 40.9616ZM2.62012 60.5109V44.4992H9.71022V45.1702C9.71022 45.1723 9.70996 45.1742 9.70996 45.1763V59.6997C9.70996 59.7009 9.71022 59.702 9.71022 59.7031V60.5109H2.62012ZM53.4795 54.0514C55.2816 53.4733 56.7386 53.5254 57.4782 54.196C57.8766 54.5579 58.0329 55.1048 57.9053 55.6934C57.6995 56.6426 56.8727 57.4356 55.6943 57.8132L39.7178 62.9369C39.4899 63.0098 39.2686 63.0814 39.0524 63.1517C35.2308 64.3861 33.3128 65.0072 29.1149 63.7012C29.1045 63.6973 29.0928 63.6947 29.0811 63.6908L11.6633 58.9539V46.0046L21.1501 44.446C22.3141 44.2546 23.3545 44.0645 24.2725 43.8978C27.6123 43.291 29.6292 42.9251 32.1969 43.3965L37.5133 44.3717C39.5863 45.0527 40.3011 46.4707 40.085 47.5085C39.8363 48.7077 38.5133 49.3652 36.7165 49.1829C35.1514 49.0228 33.3727 48.7936 31.8037 48.5918C31.3844 48.5371 30.9821 48.485 30.6084 48.4382C28.7412 48.1621 27.4248 49.4681 27.0889 50.9043C27.0173 51.2103 26.9886 51.5358 27.0094 51.8639C27.0811 53.0514 27.7907 54.2832 29.4105 54.8001C29.4508 54.8132 29.9899 54.9134 29.9899 54.9134L37.9652 56.3717C37.973 56.373 37.9821 56.3744 37.9912 56.3757C39.637 56.6322 40.3493 56.61 41.3584 56.4316C41.6227 56.3848 42.7008 56.166 42.9782 56.1126L44.736 55.7689C44.736 55.7689 53.443 54.0632 53.4795 54.0514Z" fill="#001B57" style="fill:#001B57;fill:color(display-p3 0.0000 0.1059 0.3412);fill-opacity:1;"/>
</g>
<defs>
<clipPath id="clip0_110_9310">
<rect width="66.6667" height="66.6667" fill="white" style="fill:white;fill-opacity:1;" transform="translate(0.666992 0.237793)"/>
</clipPath>
</defs>
</svg>
