<svg width="34" height="34" viewBox="0 0 34 34" fill="none" xmlns="http://www.w3.org/2000/svg">
<path d="M16.8782 9.42458L6.34357 20.5822V32.6244C6.34357 32.9362 6.43989 33.2352 6.61134 33.4557C6.78279 33.6762 7.01532 33.8 7.25778 33.8L13.6607 33.7787C13.9024 33.7772 14.1338 33.6526 14.3042 33.4323C14.4747 33.212 14.5704 32.9139 14.5704 32.6031V25.5706C14.5704 25.2588 14.6667 24.9597 14.8381 24.7392C15.0096 24.5188 15.2421 24.3949 15.4846 24.3949H19.1414C19.3839 24.3949 19.6164 24.5188 19.7879 24.7392C19.9593 24.9597 20.0557 25.2588 20.0557 25.5706V32.598C20.0553 32.7527 20.0786 32.9059 20.1244 33.049C20.1702 33.192 20.2375 33.3221 20.3224 33.4316C20.4073 33.5412 20.5082 33.6281 20.6194 33.6874C20.7305 33.7467 20.8496 33.7773 20.9699 33.7773L27.3705 33.8C27.613 33.8 27.8455 33.6762 28.017 33.4557C28.1884 33.2352 28.2847 32.9362 28.2847 32.6244V20.5741L17.7524 9.42458C17.6286 9.29623 17.4743 9.22624 17.3153 9.22624C17.1563 9.22624 17.002 9.29623 16.8782 9.42458ZM33.5186 17.0082L28.7418 11.9449V1.76747C28.7418 1.53362 28.6696 1.30935 28.541 1.144C28.4124 0.978639 28.238 0.885742 28.0562 0.885742H24.8564C24.6746 0.885742 24.5002 0.978639 24.3716 1.144C24.243 1.30935 24.1708 1.53362 24.1708 1.76747V7.10268L19.0552 1.69032C18.5642 1.17082 17.9482 0.886781 17.3124 0.886781C16.6767 0.886781 16.0606 1.17082 15.5697 1.69032L1.10626 17.0082C1.03683 17.082 0.979386 17.1727 0.937213 17.275C0.895041 17.3774 0.868964 17.4894 0.860474 17.6047C0.851984 17.7201 0.861247 17.8364 0.887733 17.9471C0.91422 18.0578 0.95741 18.1607 1.01484 18.25L2.47187 20.5278C2.52914 20.6173 2.59958 20.6915 2.67917 20.746C2.75875 20.8005 2.84591 20.8343 2.93566 20.8454C3.0254 20.8565 3.11598 20.8448 3.20219 20.8108C3.2884 20.7769 3.36856 20.7214 3.43808 20.6476L16.8782 6.412C17.002 6.28365 17.1563 6.21366 17.3153 6.21366C17.4743 6.21366 17.6286 6.28365 17.7524 6.412L31.1931 20.6476C31.2625 20.7214 31.3425 20.7769 31.4286 20.811C31.5147 20.8451 31.6052 20.857 31.6948 20.8461C31.7845 20.8351 31.8716 20.8016 31.9512 20.7474C32.0308 20.6931 32.1013 20.6193 32.1587 20.53L33.6158 18.2522C33.6731 18.1624 33.7161 18.059 33.7423 17.9478C33.7685 17.8366 33.7773 17.7198 33.7683 17.6042C33.7593 17.4886 33.7325 17.3765 33.6897 17.2742C33.6469 17.1719 33.5887 17.0815 33.5186 17.0082Z" fill="#0D121B" style="fill:#0D121B;fill:color(display-p3 0.0510 0.0706 0.1059);fill-opacity:1;"/>
</svg>
