<svg width="34" height="34" viewBox="0 0 34 34" fill="none" xmlns="http://www.w3.org/2000/svg">
<path d="M24.6292 3.71965C23.101 4.96037 21.7213 6.26473 20.4987 7.57487C18.496 5.16094 16.0127 2.7123 13.2003 0.428223C5.98118 6.28916 0.857422 13.9257 0.857422 18.5311C0.857422 26.7115 8.22567 33.3425 17.3146 33.3425C26.4035 33.3425 33.7717 26.7115 33.7717 18.5311C33.7717 15.1066 29.9528 8.04351 24.6292 3.71965ZM23.1987 25.6186C21.6074 26.5932 19.645 27.1711 17.5247 27.1711C12.2239 27.1711 7.91048 24.1021 7.91048 19.1193C7.91048 16.6372 9.69652 14.4502 13.2583 10.7139C13.7675 11.2269 20.5193 18.7715 20.5193 18.7715L24.8268 14.4721C25.131 14.9124 25.408 15.3432 25.6548 15.7559C27.6642 19.1109 26.8164 23.404 23.1987 25.6186Z" fill="#1C2129" style="fill:#1C2129;fill:color(display-p3 0.1098 0.1294 0.1608);fill-opacity:1;"/>
</svg>
