<svg width="68" height="67" viewBox="0 0 68 67" fill="none" xmlns="http://www.w3.org/2000/svg">
<path d="M56.9172 23.1545C56.9172 10.5181 46.6369 0.237793 34.0005 0.237793C21.3642 0.237793 11.0839 10.5181 11.0839 23.1545C11.0839 35.7908 21.3642 46.0711 34.0005 46.0711C46.6369 46.0711 56.9172 35.7908 56.9172 23.1545ZM54.8339 23.1545C54.8339 24.1671 54.7598 25.1625 54.6195 26.137L48.4917 28.022C47.9987 28.1736 47.4548 28.0942 47.0272 27.8084C46.3052 27.3275 46.0534 26.3788 46.4413 25.6022L48.2603 21.9654C48.6477 21.1908 48.5021 20.2944 47.8896 19.6819C47.277 19.0694 46.3807 18.9241 45.6055 19.3118L44.4975 19.867C43.4669 20.3815 42.2083 20.0474 41.5706 19.09L41.2383 18.591C40.2356 17.0869 40.4354 15.0675 41.7135 13.7895L42.5391 12.964C43.1483 12.3546 43.4492 11.5136 43.3645 10.6563C43.2797 9.7986 42.8195 9.03206 42.102 8.55342L39.7357 6.97516C39.5285 6.83701 39.4021 6.61553 39.3887 6.36709C39.3753 6.11826 39.4775 5.88376 39.6686 5.72425L41.8895 3.87386C49.4766 6.98975 54.8339 14.4576 54.8339 23.1545ZM20.9629 6.91787C22.0195 7.02816 23.0969 7.14261 24.0234 7.24222C24.2176 7.26305 24.3007 7.39626 24.3328 7.4736C24.3651 7.55133 24.401 7.70433 24.2777 7.8585L23.4882 8.84717C22.8445 9.65107 22.5617 10.6565 22.6917 11.6784C22.8216 12.6999 23.3468 13.6019 24.1695 14.218L24.713 14.6259C25.0986 14.915 25.3288 15.3758 25.3288 15.8589C25.3288 15.9854 25.3135 16.1102 25.2833 16.2302C25.1107 16.9177 24.4975 17.3981 23.7923 17.3981C23.6691 17.3981 23.5415 17.3821 23.4159 17.3509C22.7934 17.1959 22.147 17.3323 21.6423 17.7263C21.1344 18.1231 20.843 18.7172 20.843 19.3565C20.843 19.5209 20.8633 19.6882 20.9053 19.8618C21.2292 21.1571 20.9702 22.5226 20.1947 23.6077L19.2622 24.9123C17.9537 26.744 15.5418 27.3435 13.5284 26.3377L13.4008 26.2737C13.2473 25.2559 13.1672 24.2144 13.1672 23.1545C13.1672 16.5976 16.2129 10.7396 20.9629 6.91787ZM13.9158 28.6926C14.4646 28.8353 15.0215 28.9081 15.5745 28.9081C17.6529 28.908 19.6708 27.9241 20.9574 26.1233L21.8897 24.8185C23.0167 23.2416 23.3958 21.2593 22.9315 19.377C23.2173 19.446 23.5068 19.4812 23.7922 19.4812C25.454 19.4812 26.8981 18.3529 27.3037 16.7378C27.3755 16.4522 27.412 16.1564 27.412 15.8588C27.412 14.7232 26.8701 13.6392 25.963 12.9591L25.419 12.5508C25.051 12.2753 24.8164 11.872 24.7582 11.4154C24.7001 10.9582 24.8266 10.5085 25.1151 10.1481L25.9046 9.15954C26.4672 8.45693 26.602 7.5042 26.2563 6.67308C25.9106 5.84235 25.1402 5.26657 24.2458 5.17061C24.0408 5.1486 23.8274 5.12568 23.6094 5.10238C26.6698 3.33415 30.219 2.32113 34.0005 2.32113C35.9343 2.32113 37.8069 2.58701 39.5849 3.08232L38.3344 4.12425C37.6332 4.70941 37.2593 5.56774 37.3083 6.4792C37.3574 7.39027 37.8211 8.2029 38.5801 8.70863L40.9458 10.2866C41.2146 10.4659 41.2776 10.7236 41.2913 10.8614C41.3048 10.9987 41.2936 11.2632 41.066 11.4908L40.2405 12.3163C38.2626 14.2942 37.9533 17.419 39.5046 19.7463L39.8367 20.245C41.0556 22.0745 43.4595 22.7134 45.4293 21.7302L46.2555 21.3162L44.5776 24.6707C43.721 26.386 44.2775 28.4802 45.8708 29.5413C46.4977 29.9603 47.2283 30.1817 47.9836 30.1817C48.3632 30.1817 48.7399 30.125 49.1037 30.0133L54.1478 28.4616C53.6148 30.4828 52.785 32.3845 51.708 34.1177C50.5727 32.4806 48.627 31.6198 46.6254 31.9056L45.6668 32.0423C43.5292 32.3481 41.9171 34.2047 41.9171 36.3614C41.9171 36.6499 41.9457 36.9397 42.0024 37.2231C42.1379 37.9016 41.868 38.608 41.3141 39.0228L40.6837 39.4957C40.4831 39.6463 40.246 39.7259 39.9978 39.7259C39.5576 39.7259 39.1622 39.4821 38.9662 39.0901C38.6074 38.3715 37.9198 37.8657 37.1268 37.7366C36.3332 37.6076 35.5199 37.8701 34.9513 38.4386L34.1583 39.2315C34.0017 39.3882 33.8262 39.3657 33.7352 39.3381C33.6448 39.3107 33.4867 39.2325 33.4435 39.016L33.2081 37.8414C32.9561 36.5742 31.8349 35.6545 30.5422 35.6545H28.3859C26.8869 35.6545 25.6672 36.874 25.6672 38.3732V42.2465C19.969 39.7496 15.5949 34.775 13.9158 28.6926ZM34.0005 43.9878C31.8238 43.9878 29.7244 43.6516 27.7505 43.0296V38.3732C27.7505 38.0229 28.0356 37.7378 28.3859 37.7378H30.5422C30.8443 37.7378 31.1063 37.9524 31.1654 38.2498L31.401 39.425C31.5824 40.333 32.2456 41.0637 33.1316 41.3321C34.0182 41.6004 34.9763 41.3602 35.6318 40.7048L36.4247 39.9118C36.5583 39.7783 36.7128 39.7796 36.7927 39.7931C36.8724 39.806 37.0186 39.8529 37.1027 40.0214C37.6542 41.1242 38.7635 41.8093 39.9979 41.8093C40.7005 41.8093 41.3703 41.5854 41.9343 41.1621L42.5639 40.6897C43.7559 39.7968 44.3374 38.2758 44.0454 36.8149C44.0152 36.6636 44.0005 36.5151 44.0005 36.3614C44.0005 35.2348 44.8438 34.2646 45.9615 34.1048L46.9201 33.9681C48.2264 33.7806 49.4952 34.4017 50.1507 35.5485L50.4013 35.9874C46.5843 40.8549 40.6514 43.9878 34.0005 43.9878Z" fill="#DEDFE0" style="fill:#DEDFE0;fill:color(display-p3 0.8706 0.8745 0.8784);fill-opacity:1;"/>
<path d="M25.6671 33.5133C26.6544 33.5133 27.5826 33.1288 28.2806 32.4308L29.518 31.1934C29.7542 30.9572 30.0292 31.0008 30.1365 31.0305C30.2438 31.0602 30.502 31.1642 30.5831 31.4886L30.5889 31.5123C30.8921 32.7246 31.9764 33.5713 33.2262 33.5713H36.0197C36.8625 33.5713 37.6435 33.1901 38.1623 32.5258C38.681 31.8615 38.8612 31.0114 38.6568 30.1937L38.2376 28.517C38.2125 28.4163 38.2125 28.3097 38.2376 28.209L38.6568 26.5323C38.8612 25.7146 38.681 24.8645 38.1623 24.2002C37.6435 23.5358 36.8625 23.1545 36.0197 23.1545H34.0645C33.7949 23.1545 33.6352 23.0015 33.5639 22.9102C33.4927 22.819 33.383 22.627 33.4485 22.3654C33.6529 21.5477 33.4727 20.6976 32.9539 20.0332C32.4352 19.3689 31.6542 18.9878 30.8113 18.9878H29.4271C27.9281 18.9878 26.7087 20.2072 26.7087 21.7062V24.3404C26.7087 24.5533 26.603 24.7507 26.4261 24.8688L23.6168 26.7417C22.6918 27.3582 22.0985 28.3464 21.9889 29.4528C21.8793 30.5591 22.2675 31.6446 23.0535 32.4305C23.7516 33.1288 24.6797 33.5133 25.6671 33.5133ZM24.062 29.6581C24.1098 29.1753 24.3686 28.744 24.7724 28.475L27.5815 26.6021C28.3395 26.0969 28.7921 25.2513 28.7921 24.3404V21.7062C28.7921 21.356 29.077 21.0711 29.4271 21.0711H30.8113C31.0809 21.0711 31.2406 21.2241 31.3119 21.3154C31.3831 21.4065 31.4929 21.5986 31.4274 21.8602C31.2229 22.6779 31.4031 23.528 31.9219 24.1923C32.4406 24.8567 33.2216 25.2378 34.0645 25.2378H36.0197C36.2892 25.2378 36.449 25.3908 36.5202 25.4821C36.5914 25.5732 36.7012 25.7653 36.6357 26.0269L36.2166 27.7035C36.1087 28.1348 36.1087 28.5908 36.2166 29.0222L36.6357 30.6989C36.7011 30.9604 36.5914 31.1524 36.5202 31.2437C36.449 31.3349 36.2893 31.4879 36.0197 31.4879H33.2262C32.9343 31.4879 32.6809 31.29 32.6102 31.0069L32.6043 30.9832C32.3636 30.0205 31.649 29.2877 30.6926 29.0227C30.4465 28.9546 30.1983 28.9213 29.9534 28.9213C29.2461 28.9213 28.566 29.1993 28.0449 29.7203L26.8076 30.9577C26.503 31.2623 26.0979 31.4301 25.6672 31.4301C25.2365 31.4301 24.8314 31.2623 24.5267 30.9576C24.1835 30.6145 24.0142 30.1408 24.062 29.6581Z" fill="#DEDFE0" style="fill:#DEDFE0;fill:color(display-p3 0.8706 0.8745 0.8784);fill-opacity:1;"/>
<path d="M60.4794 34.1691C59.6156 33.953 58.6914 34.1062 57.9434 34.5889C57.1953 35.0715 56.6749 35.8505 56.5156 36.7265L55.1234 44.3838C54.9874 45.1327 54.6059 45.8307 54.0494 46.3497L51.635 48.6013L52.3457 45.81C52.702 44.4104 51.9078 42.9561 50.538 42.4995L50.4975 42.4859C49.0758 42.012 47.5311 42.7289 46.9814 44.1176C46.0706 46.4182 44.3991 50.6017 43.7228 52.2936C43.4923 52.8702 43.3755 53.4777 43.3755 54.0991V59.6126C42.8003 59.6126 42.3339 60.079 42.3339 60.6543V65.8626C42.3339 66.4379 42.8003 66.9043 43.3755 66.9043H53.7922C54.3675 66.9043 54.8339 66.4379 54.8339 65.8626V60.6543C54.8339 60.079 54.3675 59.6126 53.7922 59.6126V58.792C53.7922 57.6847 54.3301 56.6394 55.2311 55.9958L59.7275 52.7841C60.5457 52.1996 61.0913 51.2927 61.2242 50.2961L62.8995 37.7318C63.1169 36.1 62.0766 34.5683 60.4794 34.1691ZM52.7504 64.8209H44.4171V61.6959H52.7504V64.8209ZM60.8343 37.4564L59.159 50.0207C59.102 50.4486 58.8677 50.838 58.5164 51.0889L54.0201 54.3006C52.5728 55.3345 51.7087 57.0134 51.7087 58.792V59.6126H45.4587V54.0989C45.4587 53.7436 45.5255 53.3962 45.6572 53.0666C46.3339 51.3738 48.0064 47.1879 48.9184 44.8844C49.0613 44.5233 49.4658 44.3379 49.8382 44.462L49.8787 44.4755C50.2182 44.5888 50.415 44.9492 50.3267 45.2959L49.2857 49.3849C49.0941 50.1509 49.4504 50.939 50.1518 51.3015C50.8323 51.653 51.6513 51.5077 52.1689 50.9518L55.4702 47.873C56.3525 47.0504 56.9572 45.9435 57.1732 44.7562L58.5654 37.0989C58.6228 36.7831 58.803 36.5133 59.0728 36.3392C59.3426 36.165 59.6628 36.1121 59.9741 36.19C60.5418 36.332 60.9116 36.8764 60.8343 37.4564Z" fill="#DEDFE0" style="fill:#DEDFE0;fill:color(display-p3 0.8706 0.8745 0.8784);fill-opacity:1;"/>
<path d="M24.6266 59.6125V54.0988C24.6266 53.4775 24.5098 52.8699 24.2794 52.2932C23.603 50.6015 21.9316 46.418 21.0209 44.1173C20.4711 42.7288 18.9267 42.0117 17.5042 42.486L17.4646 42.4992C16.0945 42.956 15.3002 44.4103 15.6566 45.8099L16.3672 48.6012L13.9529 46.3496C13.3965 45.8307 13.015 45.1326 12.8788 44.3839L11.4866 36.7263C11.3274 35.8504 10.807 35.0714 10.0589 34.5888C9.31086 34.106 8.38664 33.9531 7.52271 34.169C5.92557 34.5683 4.88534 36.0999 5.10292 37.7317L6.77818 50.296C6.91112 51.2926 7.45656 52.1995 8.27492 52.784L12.7713 55.9957C13.6723 56.6392 14.2102 57.6847 14.2102 58.7919V59.6125C13.6349 59.6125 13.1685 60.0789 13.1685 60.6542V65.8625C13.1685 66.4378 13.6349 66.9042 14.2102 66.9042H24.6269C25.2021 66.9042 25.6685 66.4378 25.6685 65.8625V60.6542C25.6683 60.0789 25.2019 59.6125 24.6266 59.6125ZM13.982 54.3005L9.4856 51.0888C9.1343 50.8379 8.90005 50.4485 8.84302 50.0206L7.16776 37.4563C7.09042 36.8763 7.46021 36.3319 8.02779 36.19C8.33925 36.1123 8.65943 36.1653 8.92922 36.3392C9.19901 36.5133 9.37922 36.7831 9.43664 37.0989L10.8288 44.7564C11.0447 45.9434 11.6495 47.0503 12.5318 47.8731L15.8331 50.9518C16.3507 51.508 17.1696 51.6529 17.8502 51.3016C18.5517 50.9391 18.908 50.1509 18.7153 49.3806L17.6753 45.296C17.587 44.9492 17.7838 44.5888 18.1238 44.4754L18.1632 44.4623C18.5364 44.3378 18.9407 44.5233 19.0836 44.8844C19.9956 47.1878 21.6682 51.3738 22.3447 53.0666C22.4765 53.3961 22.5432 53.7435 22.5432 54.099V59.6125H16.2932V58.7919C16.2933 57.0133 15.4292 55.3344 13.982 54.3005ZM23.5849 64.8209H15.2516V61.6959H23.5849V64.8209Z" fill="#DEDFE0" style="fill:#DEDFE0;fill:color(display-p3 0.8706 0.8745 0.8784);fill-opacity:1;"/>
<path d="M54.5783 9.78131C54.6371 9.78951 55.1332 9.85552 55.8572 9.85552C57.335 9.85552 59.7613 9.58026 61.3474 7.97675C63.7104 5.58769 63.1047 1.36672 63.0777 1.18821C63.009 0.732348 62.6486 0.375967 62.1919 0.312035C62.0132 0.287035 57.7858 -0.2726 55.4227 2.11633C53.0596 4.50552 53.6655 8.72649 53.6925 8.905C53.7612 9.36099 54.1216 9.7175 54.5783 9.78131ZM59.9221 2.37076C60.3535 2.32558 60.7533 2.31737 61.0792 2.32297C61.0887 2.64888 61.0844 3.04849 61.044 3.48039C60.9576 4.40748 60.6831 5.68586 59.8662 6.51177C59.1637 7.22206 58.1228 7.5343 57.256 7.66946L59.1255 5.77935C59.5301 5.37024 59.5266 4.71073 59.1175 4.30631C58.7083 3.90162 58.0488 3.90526 57.6444 4.31438L55.7748 6.20461C55.9004 5.33638 56.2013 4.29211 56.9037 3.58183C57.7207 2.75566 58.9961 2.46724 59.9221 2.37076Z" fill="#DEDFE0" style="fill:#DEDFE0;fill:color(display-p3 0.8706 0.8745 0.8784);fill-opacity:1;"/>
<path d="M57.8605 19.0786C57.9292 19.5344 58.2896 19.8908 58.7463 19.9547C58.8051 19.9629 59.3013 20.0289 60.0256 20.0289C61.5034 20.0289 63.9295 19.7537 65.5154 18.1503C67.8783 15.7611 67.2726 11.5401 67.2456 11.3616C67.1769 10.9058 66.8164 10.5494 66.3598 10.4855C66.1808 10.4602 61.9536 9.90095 59.5907 12.2899C57.2275 14.6791 57.8335 18.9 57.8605 19.0786ZM64.0903 12.5442C64.5217 12.4993 64.9211 12.4909 65.2472 12.4964C65.2567 12.8223 65.2524 13.2219 65.212 13.6538C65.1256 14.5809 64.8511 15.8593 64.0342 16.6853C63.3317 17.3955 62.2908 17.7077 61.4241 17.8429L63.2937 15.9528C63.6982 15.5437 63.6947 14.8842 63.2856 14.4797C62.8765 14.0752 62.217 14.0787 61.8125 14.4878L59.9429 16.378C60.0685 15.5098 60.3694 14.4655 61.0718 13.7554C61.8887 12.9292 63.1641 12.6407 64.0903 12.5442Z" fill="#DEDFE0" style="fill:#DEDFE0;fill:color(display-p3 0.8706 0.8745 0.8784);fill-opacity:1;"/>
<path d="M67.2438 24.1052C67.175 23.6493 66.8146 23.293 66.358 23.229C66.179 23.204 61.9518 22.6444 59.5887 25.0333C57.2257 27.4225 57.8315 31.6435 57.8585 31.822C57.9272 32.2779 58.2876 32.6342 58.7443 32.6982C58.8031 32.7064 59.2992 32.7724 60.0232 32.7724C61.5011 32.7724 63.9274 32.4971 65.5134 30.8936C67.8766 28.5047 67.2707 24.2837 67.2438 24.1052ZM65.2102 26.3971C65.1237 27.3242 64.8492 28.6026 64.0323 29.4285C63.3298 30.1388 62.2889 30.451 61.4221 30.5862L63.2917 28.6961C63.6962 28.287 63.6927 27.6275 63.2836 27.223C62.8745 26.8185 62.215 26.822 61.8106 27.2311L59.9409 29.1213C60.0665 28.2531 60.3675 27.2088 61.0698 26.4986C61.8867 25.6725 63.1621 25.3841 64.0882 25.2876C64.5197 25.2426 64.9192 25.2342 65.2452 25.2398C65.2548 25.5657 65.2504 25.9654 65.2102 26.3971Z" fill="#DEDFE0" style="fill:#DEDFE0;fill:color(display-p3 0.8706 0.8745 0.8784);fill-opacity:1;"/>
<path d="M12.1434 9.85594C12.8672 9.85594 13.3635 9.78992 13.4223 9.78172C13.8789 9.71792 14.2392 9.36141 14.3081 8.90555C14.335 8.72703 14.9409 4.50607 12.5779 2.11688C10.2148 -0.272054 5.98751 0.287451 5.80873 0.312581C5.35209 0.376383 4.9918 0.732894 4.92292 1.18875C4.89597 1.36727 4.29011 5.58823 6.65326 7.97729C8.23933 9.58094 10.6656 9.85594 12.1434 9.85594ZM6.92136 2.32599C8.02735 2.30698 9.98113 2.45399 11.0968 3.58198C11.7992 4.29227 12.1001 5.33641 12.2258 6.20477L10.3561 4.31466C9.9517 3.90568 9.29219 3.90177 8.88308 4.30659C8.47409 4.71102 8.47045 5.37065 8.87501 5.77964L10.7445 7.66974C9.87774 7.53459 8.83685 7.22235 8.13438 6.51206C7.31745 5.68615 7.04298 4.40776 6.95652 3.48068C6.91628 3.05008 6.91186 2.65125 6.92136 2.32599Z" fill="#DEDFE0" style="fill:#DEDFE0;fill:color(display-p3 0.8706 0.8745 0.8784);fill-opacity:1;"/>
<path d="M2.48709 18.1507C4.07316 19.7541 6.49907 20.0293 7.97694 20.0293C8.70089 20.0293 9.19738 19.9633 9.25623 19.9551C9.71287 19.8913 10.0732 19.5348 10.142 19.0789C10.169 18.9004 10.7749 14.6795 8.41183 12.2904C6.04881 9.90134 1.82134 10.4607 1.64256 10.486C1.18592 10.5498 0.825635 10.9063 0.756754 11.3621C0.729801 11.5407 0.124072 15.7616 2.48709 18.1507C2.48696 18.1507 2.48696 18.1507 2.48709 18.1507ZM2.75519 12.4968C3.0811 12.4901 3.48084 12.4995 3.91209 12.5444C4.83813 12.6409 6.11353 12.9295 6.93058 13.7555C7.63306 14.4657 7.93397 15.5098 8.05949 16.3782L6.18996 14.4879C5.78553 14.0789 5.12603 14.0752 4.71691 14.4799C4.30793 14.8843 4.30428 15.5439 4.70884 15.9529L6.57537 17.84C5.65011 17.6981 4.65194 17.3767 3.96821 16.6855C3.15129 15.8594 2.87668 14.581 2.79035 13.6539C2.75011 13.2223 2.74569 12.8224 2.75519 12.4968Z" fill="#DEDFE0" style="fill:#DEDFE0;fill:color(display-p3 0.8706 0.8745 0.8784);fill-opacity:1;"/>
<path d="M9.25613 32.6978C9.71277 32.634 10.0731 32.2775 10.1419 31.8216C10.1689 31.6431 10.7748 27.4221 8.41173 25.033C6.04871 22.644 1.82137 23.2034 1.64259 23.2287C1.18595 23.2925 0.825665 23.649 0.756785 24.1048C0.729832 24.2833 0.123973 28.5043 2.48712 30.8934C4.07332 32.497 6.49949 32.7721 7.97736 32.7721C8.70106 32.772 9.19741 32.706 9.25613 32.6978ZM2.79038 26.3968C2.75014 25.966 2.74585 25.5673 2.75522 25.2421C3.86108 25.2233 5.81499 25.3701 6.93061 26.4981C7.63309 27.2083 7.934 28.2525 8.05965 29.1208L6.18999 27.2306C5.78556 26.8215 5.12606 26.8177 4.71694 27.2225C4.30796 27.627 4.30431 28.2866 4.70887 28.6956L6.5784 30.5857C5.7116 30.4505 4.67072 30.1383 3.96824 29.428C3.15132 28.6024 2.87671 27.3238 2.79038 26.3968Z" fill="#DEDFE0" style="fill:#DEDFE0;fill:color(display-p3 0.8706 0.8745 0.8784);fill-opacity:1;"/>
</svg>
