<svg width="68" height="67" viewBox="0 0 68 67" fill="none" xmlns="http://www.w3.org/2000/svg">
<g clip-path="url(#clip0_110_9346)">
<path fill-rule="evenodd" clip-rule="evenodd" d="M50.8546 44.7753C50.4234 44.7753 50.0734 44.4248 50.0734 43.9941V36.9419H17.9276V43.8872C17.9276 44.3184 17.5776 44.6685 17.1463 44.6685C16.7153 44.6685 16.3652 44.3181 16.3652 43.8872V36.1606C16.3652 35.7294 16.7153 35.3794 17.1463 35.3794H50.8546C51.2857 35.3794 51.6357 35.7297 51.6357 36.1606V43.9936C51.6362 44.4249 51.2857 44.7753 50.8546 44.7753Z" fill="#DEDFE0" style="fill:#DEDFE0;fill:color(display-p3 0.8706 0.8745 0.8784);fill-opacity:1;"/>
<path fill-rule="evenodd" clip-rule="evenodd" d="M55.5677 36.9419H12.4316C12.0004 36.9419 11.6504 36.5914 11.6504 36.1606V26.9106C11.6504 26.4794 12.0004 26.1294 12.4316 26.1294H55.5677C55.999 26.1294 56.349 26.4794 56.349 26.9106V36.1606C56.349 36.592 55.9991 36.9419 55.5677 36.9419ZM13.2129 35.3788H54.7861V27.6919H13.2129V35.3788Z" fill="#DEDFE0" style="fill:#DEDFE0;fill:color(display-p3 0.8706 0.8745 0.8784);fill-opacity:1;"/>
<path fill-rule="evenodd" clip-rule="evenodd" d="M50.855 42.8859C50.6852 42.8859 50.5138 42.8299 50.37 42.7161C50.0321 42.4482 49.975 41.9572 50.2437 41.6191L54.9572 35.6752C55.2251 35.3373 55.7163 35.2802 56.0542 35.5489C56.3921 35.8176 56.4491 36.308 56.1805 36.6459L51.467 42.5898C51.3135 42.7844 51.0854 42.8859 50.855 42.8859Z" fill="#DEDFE0" style="fill:#DEDFE0;fill:color(display-p3 0.8706 0.8745 0.8784);fill-opacity:1;"/>
<path fill-rule="evenodd" clip-rule="evenodd" d="M17.1479 42.8856C16.9178 42.8856 16.6894 42.7838 16.5355 42.5894L11.8215 36.6456C11.5536 36.3077 11.6099 35.8167 11.9479 35.5486C12.287 35.2806 12.7773 35.337 13.0455 35.6749L17.7595 41.6189C18.0275 41.9569 17.9711 42.4479 17.6332 42.7158C17.4893 42.8303 17.3183 42.8856 17.1479 42.8856Z" fill="#DEDFE0" style="fill:#DEDFE0;fill:color(display-p3 0.8706 0.8745 0.8784);fill-opacity:1;"/>
<path fill-rule="evenodd" clip-rule="evenodd" d="M16.2285 27.6923C15.7973 27.6923 15.4473 27.3422 15.4473 26.911V17.7503C15.4473 17.3193 15.7973 16.9692 16.2285 16.9692C16.6597 16.9692 17.0096 17.3193 17.0096 17.7503V26.911C17.0096 27.3422 16.6597 27.6923 16.2285 27.6923Z" fill="#DEDFE0" style="fill:#DEDFE0;fill:color(display-p3 0.8706 0.8745 0.8784);fill-opacity:1;"/>
<path fill-rule="evenodd" clip-rule="evenodd" d="M16.2281 20.1656H8.01587C7.58464 20.1656 7.23462 19.8157 7.23462 19.3845V12.0913C7.23462 11.6601 7.58464 11.3101 8.01587 11.3101H16.2281C16.6593 11.3101 17.0092 11.6601 17.0092 12.0913V19.3845C17.0092 19.8157 16.6593 20.1656 16.2281 20.1656ZM8.79712 18.6033H15.4468V12.8724H8.79712V18.6033Z" fill="#DEDFE0" style="fill:#DEDFE0;fill:color(display-p3 0.8706 0.8745 0.8784);fill-opacity:1;"/>
<path fill-rule="evenodd" clip-rule="evenodd" d="M51.7754 27.6923C51.3442 27.6923 50.9941 27.3422 50.9941 26.911V17.7503C50.9941 17.3193 51.3446 16.9692 51.7754 16.9692C52.2062 16.9692 52.5567 17.3193 52.5567 17.7503V26.911C52.5567 27.3422 52.2068 27.6923 51.7754 27.6923Z" fill="#DEDFE0" style="fill:#DEDFE0;fill:color(display-p3 0.8706 0.8745 0.8784);fill-opacity:1;"/>
<path fill-rule="evenodd" clip-rule="evenodd" d="M59.9855 20.1656H51.7733C51.3421 20.1656 50.9922 19.8157 50.9922 19.3845V12.0913C50.9922 11.6601 51.3425 11.3101 51.7733 11.3101H59.9855C60.4167 11.3101 60.7668 11.6601 60.7668 12.0913V19.3845C60.7672 19.8157 60.4167 20.1656 59.9855 20.1656ZM52.555 18.6033H59.2043V12.8724H52.555V18.6033Z" fill="#DEDFE0" style="fill:#DEDFE0;fill:color(display-p3 0.8706 0.8745 0.8784);fill-opacity:1;"/>
<path fill-rule="evenodd" clip-rule="evenodd" d="M19.6678 27.6922C19.2366 27.6922 18.8867 27.3422 18.8867 26.911V17.0088C18.8867 16.8015 18.9692 16.6029 19.1157 16.4565L21.7507 13.8215C22.0563 13.5159 22.5505 13.5159 22.8554 13.8215C23.1608 14.1264 23.1608 14.6212 22.8554 14.9261L20.4488 17.3328V26.911C20.4489 27.3422 20.099 27.6922 19.6678 27.6922Z" fill="#DEDFE0" style="fill:#DEDFE0;fill:color(display-p3 0.8706 0.8745 0.8784);fill-opacity:1;"/>
<path fill-rule="evenodd" clip-rule="evenodd" d="M48.333 27.6919C47.9018 27.6919 47.5517 27.3419 47.5517 26.9107V17.3322L45.1451 14.9255C44.8397 14.6207 44.8397 14.1258 45.1451 13.821C45.4507 13.5154 45.9454 13.5154 46.2504 13.821L48.8854 16.456C49.0318 16.6024 49.1144 16.8011 49.1144 17.0083V26.9099C49.1143 27.3419 48.7645 27.6919 48.333 27.6919Z" fill="#DEDFE0" style="fill:#DEDFE0;fill:color(display-p3 0.8706 0.8745 0.8784);fill-opacity:1;"/>
<path fill-rule="evenodd" clip-rule="evenodd" d="M44.5611 27.6922H23.4395C23.0082 27.6922 22.6582 27.3422 22.6582 26.9109V22.4344C22.6582 19.5353 25.017 17.1765 27.9163 17.1765L31.0078 17.1762V15.6658C31.0078 15.38 31.164 15.1164 31.4151 14.9796C31.6664 14.8428 31.9723 14.8537 32.2127 15.0095C33.3915 15.7706 34.6117 15.7706 35.7872 15.0095C36.0276 14.8538 36.3347 14.8431 36.5853 14.9796C36.8365 15.1164 36.9934 15.3793 36.9934 15.6658V17.1762H40.0843C42.9834 17.1762 45.3424 19.5352 45.3424 22.4343V26.9108C45.3424 27.3422 44.9924 27.6922 44.5611 27.6922ZM24.2207 26.1297H43.7793V22.4341C43.7793 20.3962 42.1213 18.7385 40.0837 18.7385L36.2117 18.7382C35.7805 18.7382 35.4305 18.3882 35.4305 17.957V16.9089C34.492 17.2229 33.5093 17.2229 32.5703 16.9089V17.957C32.5703 18.3882 32.2203 18.7382 31.789 18.7382H27.9164C25.8787 18.7382 24.2209 20.3962 24.2209 22.4338L24.2207 26.1297Z" fill="#DEDFE0" style="fill:#DEDFE0;fill:color(display-p3 0.8706 0.8745 0.8784);fill-opacity:1;"/>
<path fill-rule="evenodd" clip-rule="evenodd" d="M27.5684 27.6918C27.1371 27.6918 26.7871 27.3418 26.7871 26.9106V22.7598C26.7871 22.3285 27.1371 21.9785 27.5684 21.9785C27.9996 21.9785 28.3496 22.3285 28.3496 22.7598V26.9106C28.3496 27.3418 27.9996 27.6918 27.5684 27.6918Z" fill="#DEDFE0" style="fill:#DEDFE0;fill:color(display-p3 0.8706 0.8745 0.8784);fill-opacity:1;"/>
<path fill-rule="evenodd" clip-rule="evenodd" d="M27.5684 24.6694H23.4414C23.0102 24.6694 22.6602 24.3194 22.6602 23.8882C22.6602 23.457 23.0102 23.1069 23.4414 23.1069H27.5684C27.9996 23.1069 28.3496 23.457 28.3496 23.8882C28.3496 24.3194 27.9996 24.6694 27.5684 24.6694Z" fill="#DEDFE0" style="fill:#DEDFE0;fill:color(display-p3 0.8706 0.8745 0.8784);fill-opacity:1;"/>
<path fill-rule="evenodd" clip-rule="evenodd" d="M34.001 17.1451C31.1573 17.1451 28.9312 14.3815 28.0664 11.8137C27.9856 11.5727 28.0262 11.3074 28.1772 11.1024C28.5818 10.5506 28.7994 8.77221 28.8248 7.68599C28.8325 7.36595 29.0342 7.08283 29.3341 6.97148C29.6348 6.86137 29.9724 6.9438 30.186 7.1814C31.0909 8.18719 32.8648 8.39834 34.193 8.39834C36.343 8.39834 38.3959 7.863 38.4167 7.85746C38.6641 7.79179 38.9273 7.85254 39.1224 8.01756C39.3167 8.18304 39.4188 8.43371 39.3943 8.68808C39.2207 10.4796 39.7474 11.6255 39.753 11.6367C39.8446 11.8309 39.8538 12.0578 39.7751 12.2579C38.8215 14.6902 36.6665 17.1451 34.001 17.1451ZM29.6657 11.6433C30.4437 13.6518 32.1228 15.5825 34.001 15.5825C35.8374 15.5825 37.4027 13.8101 38.2039 11.9671C38.0483 11.5297 37.8193 10.7063 37.7975 9.59301C36.9247 9.76126 35.5923 9.96088 34.1923 9.96088C32.5903 9.96088 31.2817 9.6999 30.2813 9.18193C30.1866 9.99256 30.0065 10.9554 29.6657 11.6433Z" fill="#DEDFE0" style="fill:#DEDFE0;fill:color(display-p3 0.8706 0.8745 0.8784);fill-opacity:1;"/>
<path fill-rule="evenodd" clip-rule="evenodd" d="M39.0478 12.7556C39.0076 12.7556 38.9675 12.7522 38.9269 12.7463C38.6747 12.7067 38.4575 12.5463 38.3457 12.3165C38.3207 12.2654 37.8319 11.2412 37.7972 9.59303C36.9247 9.76081 35.5913 9.96089 34.1917 9.96089C32.5897 9.96089 31.2809 9.69991 30.2805 9.18241C30.1661 10.1573 29.9285 11.3547 29.4353 12.0268C29.2844 12.2328 29.0371 12.3562 28.7869 12.3459C28.5315 12.3399 28.2954 12.2098 28.1544 11.9965C27.8349 11.5153 25.0673 7.22234 26.2349 4.76678C26.5165 4.17485 27.1398 3.44788 28.5162 3.23473C30.5821 1.27298 32.812 0.238281 34.9799 0.238281C37.6935 0.238281 40.0688 1.85446 41.1793 4.45705C42.3489 7.1979 41.7484 10.2852 39.6119 12.5146C39.4629 12.6698 39.2588 12.7556 39.0478 12.7556ZM38.615 7.83168C38.7983 7.83168 38.9786 7.89627 39.1216 8.01792C39.3164 8.1834 39.4179 8.43392 39.3935 8.68844C39.3366 9.27592 39.355 9.79404 39.4055 10.2254C40.3419 8.64123 40.4791 6.79668 39.7423 5.07036C38.8814 3.05356 37.0568 1.80064 34.98 1.80064C33.1632 1.80064 31.2403 2.74629 29.4198 4.53425C29.2923 4.65959 29.1257 4.73725 28.9478 4.75448C27.9235 4.85444 27.7145 5.29382 27.6462 5.43808C27.2042 6.36743 27.8471 8.19322 28.6233 9.70192C28.7426 9.02555 28.81 8.25937 28.8235 7.68589C28.831 7.36585 29.0328 7.08273 29.3329 6.972C29.6334 6.86081 29.9709 6.94431 30.1845 7.18192C31.0894 8.18771 32.8636 8.39886 34.1917 8.39886C36.3415 8.39886 38.3945 7.86352 38.4152 7.85798C38.4815 7.84029 38.5487 7.83168 38.615 7.83168Z" fill="#DEDFE0" style="fill:#DEDFE0;fill:color(display-p3 0.8706 0.8745 0.8784);fill-opacity:1;"/>
<path fill-rule="evenodd" clip-rule="evenodd" d="M34.0002 20.3894C33.8358 20.3894 33.6715 20.3379 33.5331 20.2341L31.3219 18.5833C30.9764 18.3251 30.9045 17.8357 31.1634 17.4902C31.4216 17.1441 31.9116 17.0735 32.2565 17.3317L34.0006 18.6337L35.7448 17.3317C36.091 17.074 36.5797 17.1441 36.8385 17.4902C37.0967 17.8357 37.0257 18.3257 36.6797 18.5833L34.4683 20.2341C34.3291 20.3377 34.1647 20.3894 34.0002 20.3894Z" fill="#DEDFE0" style="fill:#DEDFE0;fill:color(display-p3 0.8706 0.8745 0.8784);fill-opacity:1;"/>
<path fill-rule="evenodd" clip-rule="evenodd" d="M34 27.6921C33.5688 27.6921 33.2188 27.342 33.2188 26.9108V19.6084C33.2188 19.1772 33.5692 18.8271 34 18.8271C34.4309 18.8271 34.7813 19.1772 34.7813 19.6084V26.9102C34.7813 27.342 34.4315 27.6921 34 27.6921Z" fill="#DEDFE0" style="fill:#DEDFE0;fill:color(display-p3 0.8706 0.8745 0.8784);fill-opacity:1;"/>
<path fill-rule="evenodd" clip-rule="evenodd" d="M40.4354 27.6918C40.0042 27.6918 39.6543 27.3418 39.6543 26.9106V22.7598C39.6543 22.3285 40.0046 21.9785 40.4354 21.9785C40.8663 21.9785 41.2167 22.3285 41.2167 22.7598V26.9106C41.2173 27.3418 40.8669 27.6918 40.4354 27.6918Z" fill="#DEDFE0" style="fill:#DEDFE0;fill:color(display-p3 0.8706 0.8745 0.8784);fill-opacity:1;"/>
<path fill-rule="evenodd" clip-rule="evenodd" d="M44.5621 24.6694H40.4356C40.0044 24.6694 39.6545 24.3194 39.6545 23.8882C39.6545 23.457 40.0049 23.1069 40.4356 23.1069H44.5621C44.9934 23.1069 45.3434 23.457 45.3434 23.8882C45.3434 24.3194 44.9934 24.6694 44.5621 24.6694Z" fill="#DEDFE0" style="fill:#DEDFE0;fill:color(display-p3 0.8706 0.8745 0.8784);fill-opacity:1;"/>
<path fill-rule="evenodd" clip-rule="evenodd" d="M44.2109 61.0306C43.7797 61.0306 43.4297 60.6801 43.4297 60.2494V50.2739C43.4297 49.8427 43.7802 49.4927 44.2109 49.4927C44.6417 49.4927 44.9922 49.843 44.9922 50.2739V60.2494C44.9928 60.6806 44.6422 61.0306 44.2109 61.0306ZM53.7236 55.4534C53.7018 55.4534 53.6807 55.4523 53.659 55.4508C53.2289 55.4154 52.9087 55.038 52.9441 54.6082L53.0211 53.6701C53.0563 53.2393 53.4401 52.9202 53.8636 52.9551C54.2939 52.9903 54.6139 53.3679 54.5787 53.7977L54.5015 54.7357C54.4675 55.144 54.1256 55.4534 53.7236 55.4534Z" fill="#DEDFE0" style="fill:#DEDFE0;fill:color(display-p3 0.8706 0.8745 0.8784);fill-opacity:1;"/>
<path fill-rule="evenodd" clip-rule="evenodd" d="M46.6079 54.5356C46.1767 54.5356 45.8267 54.1851 45.8267 53.7543V46.7898C45.8267 46.5637 45.6358 46.3726 45.4094 46.3726C45.183 46.3726 44.9922 46.5634 44.9922 46.7898V53.7543C44.9922 54.1855 44.6417 54.5356 44.2109 54.5356C43.7802 54.5356 43.4297 54.1851 43.4297 53.7543V46.7898C43.4297 45.6983 44.3183 44.8101 45.4094 44.8101C46.5006 44.8101 47.3892 45.6988 47.3892 46.7898V53.7543C47.3898 54.1851 47.0393 54.5356 46.6079 54.5356Z" fill="#DEDFE0" style="fill:#DEDFE0;fill:color(display-p3 0.8706 0.8745 0.8784);fill-opacity:1;"/>
<path fill-rule="evenodd" clip-rule="evenodd" d="M49.0051 54.5357C48.5739 54.5357 48.2238 54.1852 48.2238 53.7544V46.2805C48.2238 46.0544 48.033 45.8633 47.8066 45.8633C47.5802 45.8633 47.3889 46.0541 47.3889 46.2805V53.7544C47.3889 54.1856 47.0384 54.5357 46.6077 54.5357C46.1769 54.5357 45.8264 54.1852 45.8264 53.7544V46.2805C45.8264 45.1891 46.7152 44.3008 47.8066 44.3008C48.8981 44.3008 49.7864 45.1895 49.7864 46.2805V53.7544C49.787 54.1852 49.4365 54.5357 49.0051 54.5357Z" fill="#DEDFE0" style="fill:#DEDFE0;fill:color(display-p3 0.8706 0.8745 0.8784);fill-opacity:1;"/>
<path fill-rule="evenodd" clip-rule="evenodd" d="M51.4009 54.5359C50.9698 54.5359 50.6198 54.1854 50.6198 53.7547V44.9988C50.6198 44.7727 50.4288 44.5816 50.2024 44.5816C49.976 44.5816 49.7852 44.7724 49.7852 44.9988V53.7547C49.7852 54.1859 49.4347 54.5359 49.0039 54.5359C48.5731 54.5359 48.2227 54.1854 48.2227 53.7547V44.9988C48.2227 43.9073 49.1114 43.019 50.2024 43.019C51.2935 43.019 52.1821 43.9078 52.1821 44.9988V53.7547C52.1826 54.1854 51.8321 54.5359 51.4009 54.5359Z" fill="#DEDFE0" style="fill:#DEDFE0;fill:color(display-p3 0.8706 0.8745 0.8784);fill-opacity:1;"/>
<path fill-rule="evenodd" clip-rule="evenodd" d="M53.7996 54.5357C53.3686 54.5357 53.0185 54.1852 53.0185 53.7544V46.2805C53.0185 46.0544 52.8269 45.8633 52.6008 45.8633C52.3746 45.8633 52.1834 46.0541 52.1834 46.2805V53.7544C52.1834 54.1856 51.8331 54.5357 51.4022 54.5357C50.9714 54.5357 50.6211 54.1852 50.6211 53.7544V46.2805C50.6211 45.1891 51.5097 44.3008 52.6008 44.3008C53.6929 44.3008 54.5809 45.1895 54.5809 46.2805V53.7544C54.5813 54.1852 54.2309 54.5357 53.7996 54.5357Z" fill="#DEDFE0" style="fill:#DEDFE0;fill:color(display-p3 0.8706 0.8745 0.8784);fill-opacity:1;"/>
<path fill-rule="evenodd" clip-rule="evenodd" d="M51.7988 63.6408C51.3676 63.6408 51.0176 63.2904 51.0176 62.8595V61.6899C51.0176 61.4197 51.1577 61.1686 51.3871 61.0259C53.4113 59.7692 54.1415 58.2753 54.1484 58.2601L56.1497 54.3731C56.3749 53.9867 56.6098 53.3214 56.4774 52.9782C56.2355 53.0808 55.7137 53.4795 54.6153 54.8223C54.4786 54.9899 54.3691 55.1228 54.2976 55.2009C54.0051 55.5183 53.5104 55.5385 53.1936 55.2477C52.8761 54.9553 52.8551 54.4617 53.1468 54.1438C53.2056 54.0803 53.2938 53.9708 53.4056 53.8345C54.4858 52.5118 55.6442 51.2321 56.7758 51.4008C57.0666 51.442 57.6009 51.6222 57.9118 52.3584C58.4184 53.5586 57.6092 54.9739 57.5152 55.1313L55.5479 58.9551C55.5226 59.0094 54.713 60.6688 52.5802 62.1146V62.86C52.5801 63.2904 52.2301 63.6408 51.7988 63.6408Z" fill="#DEDFE0" style="fill:#DEDFE0;fill:color(display-p3 0.8706 0.8745 0.8784);fill-opacity:1;"/>
<path fill-rule="evenodd" clip-rule="evenodd" d="M44.9447 63.6409C44.5135 63.6409 44.1636 63.2906 44.1636 62.8597V62.0593C43.5762 61.4789 43.4208 60.6723 43.4301 60.2332C43.4399 59.8014 43.8115 59.4741 44.2276 59.4688C44.6561 59.478 44.9969 59.8302 44.992 60.2577C44.9926 60.2843 45.0066 60.8018 45.3658 61.0319C45.5899 61.1757 45.726 61.4236 45.726 61.6899V62.8595C45.726 63.2906 45.376 63.6409 44.9447 63.6409Z" fill="#DEDFE0" style="fill:#DEDFE0;fill:color(display-p3 0.8706 0.8745 0.8784);fill-opacity:1;"/>
<path fill-rule="evenodd" clip-rule="evenodd" d="M51.799 66.9041H44.9452C44.5139 66.9041 44.1641 66.5536 44.1641 66.1228V62.8594C44.1641 62.4281 44.5144 62.0781 44.9452 62.0781H51.799C52.2302 62.0781 52.5802 62.4286 52.5802 62.8594V66.1228C52.5802 66.5534 52.2302 66.9041 51.799 66.9041ZM45.7264 65.3409H51.0171V63.6406H45.7264V65.3409Z" fill="#DEDFE0" style="fill:#DEDFE0;fill:color(display-p3 0.8706 0.8745 0.8784);fill-opacity:1;"/>
<path fill-rule="evenodd" clip-rule="evenodd" d="M27.457 61.0306C27.0258 61.0306 26.6758 60.6801 26.6758 60.2494V50.2739C26.6758 49.8427 27.0258 49.4927 27.457 49.4927C27.8883 49.4927 28.2383 49.843 28.2383 50.2739V60.2494C28.2383 60.6806 27.8889 61.0306 27.457 61.0306ZM36.9697 55.4534C36.948 55.4534 36.9268 55.4523 36.9051 55.4508C36.475 55.4154 36.1548 55.038 36.1902 54.6082L36.2672 53.6701C36.3024 53.2393 36.6872 52.9202 37.1098 52.9551C37.54 52.9903 37.86 53.3679 37.8248 53.7977L37.7476 54.7357C37.7135 55.144 37.3716 55.4534 36.9697 55.4534Z" fill="#DEDFE0" style="fill:#DEDFE0;fill:color(display-p3 0.8706 0.8745 0.8784);fill-opacity:1;"/>
<path fill-rule="evenodd" clip-rule="evenodd" d="M29.855 54.5356C29.4238 54.5356 29.0738 54.1851 29.0738 53.7543V46.7898C29.0738 46.5637 28.8823 46.3726 28.6561 46.3726C28.43 46.3726 28.2384 46.5634 28.2384 46.7898V53.7543C28.2384 54.1855 27.8885 54.5356 27.4573 54.5356C27.026 54.5356 26.676 54.1851 26.676 53.7543V46.7898C26.676 45.6983 27.564 44.8101 28.6558 44.8101C29.7474 44.8101 30.6355 45.6988 30.6355 46.7898V53.7543C30.6363 54.1851 30.2869 54.5356 29.855 54.5356Z" fill="#DEDFE0" style="fill:#DEDFE0;fill:color(display-p3 0.8706 0.8745 0.8784);fill-opacity:1;"/>
<path fill-rule="evenodd" clip-rule="evenodd" d="M32.2529 54.5357C31.8217 54.5357 31.4717 54.1852 31.4717 53.7544V46.2805C31.4717 46.0544 31.2802 45.8633 31.054 45.8633C30.8279 45.8633 30.6367 46.0541 30.6367 46.2805V53.7544C30.6367 54.1856 30.2867 54.5357 29.8555 54.5357C29.4242 54.5357 29.0742 54.1852 29.0742 53.7544V46.2805C29.0742 45.1891 29.9624 44.3008 31.054 44.3008C32.1457 44.3008 33.0337 45.1895 33.0337 46.2805V53.7544C33.0342 54.1852 32.6841 54.5357 32.2529 54.5357Z" fill="#DEDFE0" style="fill:#DEDFE0;fill:color(display-p3 0.8706 0.8745 0.8784);fill-opacity:1;"/>
<path fill-rule="evenodd" clip-rule="evenodd" d="M34.6496 54.5359C34.2184 54.5359 33.8684 54.1854 33.8684 53.7547V44.9988C33.8684 44.7727 33.6775 44.5816 33.4511 44.5816C33.2248 44.5816 33.0335 44.7724 33.0335 44.9988V53.7547C33.0335 54.1859 32.6834 54.5359 32.2522 54.5359C31.821 54.5359 31.4709 54.1854 31.4709 53.7547V44.9988C31.4709 43.9073 32.3591 43.019 33.4507 43.019C34.5423 43.019 35.4304 43.9078 35.4304 44.9988V53.7547C35.4315 54.1854 35.0809 54.5359 34.6496 54.5359Z" fill="#DEDFE0" style="fill:#DEDFE0;fill:color(display-p3 0.8706 0.8745 0.8784);fill-opacity:1;"/>
<path fill-rule="evenodd" clip-rule="evenodd" d="M37.0454 54.5357C36.6142 54.5357 36.2642 54.1852 36.2642 53.7544V46.2805C36.2642 46.0544 36.0733 45.8633 35.8469 45.8633C35.6205 45.8633 35.4297 46.0541 35.4297 46.2805V53.7544C35.4297 54.1856 35.0792 54.5357 34.6484 54.5357C34.2177 54.5357 33.8672 54.1852 33.8672 53.7544V46.2805C33.8672 45.1891 34.7559 44.3008 35.8469 44.3008C36.9381 44.3008 37.8267 45.1895 37.8267 46.2805V53.7544C37.8273 54.1852 37.4768 54.5357 37.0454 54.5357Z" fill="#DEDFE0" style="fill:#DEDFE0;fill:color(display-p3 0.8706 0.8745 0.8784);fill-opacity:1;"/>
<path fill-rule="evenodd" clip-rule="evenodd" d="M35.0449 63.6409C34.6137 63.6409 34.2637 63.2906 34.2637 62.8596V61.6901C34.2637 61.4199 34.4038 61.1687 34.6332 61.026C36.6574 59.7694 37.3876 58.2755 37.3945 58.2602L39.3958 54.3732C39.6209 53.9869 39.8559 53.3216 39.7235 52.9783C39.4816 53.0803 38.9601 53.4791 37.8621 54.8213C37.7249 54.9894 37.6146 55.1229 37.5426 55.2017C37.2503 55.5182 36.7565 55.5392 36.4386 55.2472C36.1212 54.9554 36.1012 54.4612 36.393 54.1433C36.4518 54.0798 36.5407 53.9703 36.653 53.8331C37.7321 52.5119 38.8806 51.2283 40.022 51.4009C40.3128 51.4427 40.8471 51.6224 41.1581 52.3585C41.6647 53.5587 40.8554 54.9741 40.7615 55.1314L38.7942 58.9552C38.7688 59.0095 37.9592 60.6689 35.8265 62.1147V62.8601C35.8262 63.2906 35.4762 63.6409 35.0449 63.6409Z" fill="#DEDFE0" style="fill:#DEDFE0;fill:color(display-p3 0.8706 0.8745 0.8784);fill-opacity:1;"/>
<path fill-rule="evenodd" clip-rule="evenodd" d="M28.1921 63.6405C27.7609 63.6405 27.4109 63.2901 27.4109 62.8592V62.0589C26.8234 61.4785 26.6676 60.6722 26.6764 60.2334C26.685 59.8022 27.0344 59.4637 27.4735 59.4683C27.9021 59.4769 28.2427 59.8291 28.2389 60.2566C28.2395 60.2832 28.2541 60.8012 28.6134 61.0313C28.8379 61.1751 28.9735 61.423 28.9735 61.6893V62.8589C28.9734 63.2901 28.6235 63.6405 28.1921 63.6405Z" fill="#DEDFE0" style="fill:#DEDFE0;fill:color(display-p3 0.8706 0.8745 0.8784);fill-opacity:1;"/>
<path fill-rule="evenodd" clip-rule="evenodd" d="M35.0452 66.9041H28.1914C27.7602 66.9041 27.4102 66.5536 27.4102 66.1228V62.8594C27.4102 62.4281 27.7602 62.0781 28.1914 62.0781H35.0452C35.4765 62.0781 35.8265 62.4286 35.8265 62.8594V66.1228C35.8265 66.5534 35.4765 66.9041 35.0452 66.9041ZM28.9727 65.3409H34.2633V63.6406H28.9727V65.3409Z" fill="#DEDFE0" style="fill:#DEDFE0;fill:color(display-p3 0.8706 0.8745 0.8784);fill-opacity:1;"/>
<path fill-rule="evenodd" clip-rule="evenodd" d="M10.7053 61.0306C10.2741 61.0306 9.92407 60.6801 9.92407 60.2494V50.2739C9.92407 49.8427 10.2741 49.4927 10.7053 49.4927C11.1366 49.4927 11.4866 49.843 11.4866 50.2739V60.2494C11.4866 60.6806 11.1366 61.0306 10.7053 61.0306ZM20.2168 55.4534C20.1949 55.4534 20.1739 55.4523 20.1522 55.4508C19.7223 55.4154 19.4023 55.038 19.4375 54.6082L19.5146 53.6701C19.5493 53.2399 19.923 52.9248 20.3572 52.9551C20.787 52.9903 21.1071 53.3679 21.0718 53.7977L20.9946 54.7357C20.9613 55.144 20.6194 55.4534 20.2168 55.4534Z" fill="#DEDFE0" style="fill:#DEDFE0;fill:color(display-p3 0.8706 0.8745 0.8784);fill-opacity:1;"/>
<path fill-rule="evenodd" clip-rule="evenodd" d="M13.1028 54.5356C12.6715 54.5356 12.3215 54.1851 12.3215 53.7543V46.7898C12.3215 46.5637 12.13 46.3726 11.9038 46.3726C11.6777 46.3726 11.4866 46.5634 11.4866 46.7898V53.7543C11.4866 54.1855 11.1366 54.5356 10.7053 54.5356C10.2741 54.5356 9.92407 54.1851 9.92407 53.7543V46.7898C9.92407 45.6983 10.8122 44.8101 11.9038 44.8101C12.9956 44.8101 13.8835 45.6988 13.8835 46.7898V53.7543C13.884 54.1851 13.534 54.5356 13.1028 54.5356Z" fill="#DEDFE0" style="fill:#DEDFE0;fill:color(display-p3 0.8706 0.8745 0.8784);fill-opacity:1;"/>
<path fill-rule="evenodd" clip-rule="evenodd" d="M15.4992 54.5357C15.068 54.5357 14.718 54.1852 14.718 53.7544V46.2805C14.718 46.0544 14.5271 45.8633 14.3008 45.8633C14.0744 45.8633 13.8831 46.0541 13.8831 46.2805V53.7544C13.8831 54.1856 13.533 54.5357 13.1018 54.5357C12.6706 54.5357 12.3206 54.1852 12.3206 53.7544V46.2805C12.3206 45.1891 13.2087 44.3008 14.3003 44.3008C15.392 44.3008 16.28 45.1895 16.28 46.2805V53.7544C16.2805 54.1852 15.9311 54.5357 15.4992 54.5357Z" fill="#DEDFE0" style="fill:#DEDFE0;fill:color(display-p3 0.8706 0.8745 0.8784);fill-opacity:1;"/>
<path fill-rule="evenodd" clip-rule="evenodd" d="M17.8955 54.5359C17.4643 54.5359 17.1142 54.1854 17.1142 53.7547V44.9988C17.1142 44.7727 16.9234 44.5816 16.697 44.5816C16.4706 44.5816 16.2793 44.7724 16.2793 44.9988V53.7547C16.2793 54.1859 15.9293 54.5359 15.498 54.5359C15.0668 54.5359 14.7168 54.1854 14.7168 53.7547V44.9988C14.7168 43.9073 15.6049 43.019 16.6965 43.019C17.7883 43.019 18.6763 43.9078 18.6763 44.9988V53.7547C18.6767 54.1854 18.3269 54.5359 17.8955 54.5359Z" fill="#DEDFE0" style="fill:#DEDFE0;fill:color(display-p3 0.8706 0.8745 0.8784);fill-opacity:1;"/>
<path fill-rule="evenodd" clip-rule="evenodd" d="M20.2939 54.5357C19.8627 54.5357 19.5127 54.1852 19.5127 53.7544V46.2805C19.5127 46.0544 19.3218 45.8633 19.0954 45.8633C18.8691 45.8633 18.6777 46.0541 18.6777 46.2805V53.7544C18.6777 54.1856 18.3277 54.5357 17.8965 54.5357C17.4653 54.5357 17.1152 54.1852 17.1152 53.7544V46.2805C17.1152 45.1891 18.0034 44.3008 19.095 44.3008C20.1867 44.3008 21.0747 45.1895 21.0747 46.2805V53.7544C21.0753 54.1852 20.7259 54.5357 20.2939 54.5357Z" fill="#DEDFE0" style="fill:#DEDFE0;fill:color(display-p3 0.8706 0.8745 0.8784);fill-opacity:1;"/>
<path fill-rule="evenodd" clip-rule="evenodd" d="M18.293 63.6409C17.8617 63.6409 17.5117 63.2906 17.5117 62.8596V61.6901C17.5117 61.4199 17.6512 61.1687 17.8813 61.026C19.8789 59.7862 20.6367 58.2721 20.6443 58.257L22.6445 54.3735C22.8696 53.9872 23.1046 53.3221 22.9722 52.9793C22.7303 53.0811 22.2083 53.4794 21.1113 54.8215C20.9741 54.9897 20.8639 55.1232 20.7919 55.202C20.5002 55.5183 20.0057 55.5394 19.6878 55.2475C19.3701 54.9555 19.35 54.4613 19.6423 54.1434C19.7011 54.0799 19.79 53.9698 19.9022 53.8332C20.9818 52.512 22.1342 51.2297 23.2713 51.4012C23.5621 51.443 24.0964 51.6227 24.4074 52.3587C24.9139 53.5589 24.1047 54.9744 24.0107 55.1315L22.0431 58.9554C22.0176 59.0097 21.2082 60.6692 19.0755 62.115V62.8603C19.0742 63.2906 18.7248 63.6409 18.293 63.6409Z" fill="#DEDFE0" style="fill:#DEDFE0;fill:color(display-p3 0.8706 0.8745 0.8784);fill-opacity:1;"/>
<path fill-rule="evenodd" clip-rule="evenodd" d="M11.4397 63.6405C11.0085 63.6405 10.6584 63.2901 10.6584 62.8592V62.0589C10.071 61.4785 9.91579 60.6722 9.92441 60.2334C9.93302 59.8022 10.2874 59.4637 10.7213 59.4683C11.15 59.4769 11.4908 59.8291 11.4869 60.2566C11.4875 60.2837 11.502 60.8012 11.8606 61.0313C12.0852 61.1751 12.221 61.423 12.221 61.6893V62.8589C12.2211 63.2901 11.8711 63.6405 11.4397 63.6405Z" fill="#DEDFE0" style="fill:#DEDFE0;fill:color(display-p3 0.8706 0.8745 0.8784);fill-opacity:1;"/>
<path fill-rule="evenodd" clip-rule="evenodd" d="M18.293 66.9041H11.4397C11.0085 66.9041 10.6584 66.5536 10.6584 66.1228V62.8594C10.6584 62.4281 11.0085 62.0781 11.4397 62.0781H18.293C18.7243 62.0781 19.0743 62.4286 19.0743 62.8594V66.1228C19.0743 66.5534 18.7249 66.9041 18.293 66.9041ZM12.2211 65.3409H17.5118V63.6406H12.2211V65.3409Z" fill="#DEDFE0" style="fill:#DEDFE0;fill:color(display-p3 0.8706 0.8745 0.8784);fill-opacity:1;"/>
</g>
<defs>
<clipPath id="clip0_110_9346">
<rect width="66.6667" height="66.6667" fill="white" style="fill:white;fill-opacity:1;" transform="translate(0.667969 0.237793)"/>
</clipPath>
</defs>
</svg>
