<svg width="96" height="96" viewBox="0 0 96 96" fill="none" xmlns="http://www.w3.org/2000/svg">
<path d="M7.68637 83.3612C6.96459 84.0237 6.03024 84.3549 4.88331 84.3549C3.73638 84.3549 2.79708 84.0237 2.06542 83.3612C1.34364 82.6889 0.982752 81.7941 0.982752 80.6768V73.7804H2.36204V80.6175C2.36204 81.3492 2.57956 81.9325 3.0146 82.3676C3.44964 82.7927 4.07255 83.0053 4.88331 83.0053C5.69407 83.0053 6.31697 82.7927 6.75201 82.3676C7.18706 81.9325 7.40458 81.3492 7.40458 80.6175V73.7804H8.76903V80.6768C8.76903 81.7941 8.40814 82.6889 7.68637 83.3612ZM14.4861 76.5538C15.5243 76.5538 16.4092 76.9345 17.1408 77.6958C17.8725 78.4472 18.2383 79.3668 18.2383 80.4544C18.2383 81.542 17.8725 82.4664 17.1408 83.2278C16.4092 83.9792 15.5243 84.3549 14.4861 84.3549C13.2601 84.3549 12.3257 83.8655 11.683 82.8866V87.1283H10.3927V76.7466H11.683V78.0221C12.3257 77.0432 13.2601 76.5538 14.4861 76.5538ZM14.3229 83.1091C15.0645 83.1091 15.6874 82.857 16.1916 82.3527C16.6959 81.8386 16.948 81.2058 16.948 80.4544C16.948 79.7029 16.6959 79.0751 16.1916 78.5708C15.6874 78.0567 15.0645 77.7996 14.3229 77.7996C13.5715 77.7996 12.9437 78.0567 12.4394 78.5708C11.9352 79.0751 11.683 79.7029 11.683 80.4544C11.683 81.2058 11.9352 81.8386 12.4394 82.3527C12.9437 82.857 13.5715 83.1091 14.3229 83.1091ZM19.4261 84.1621V73.3355H20.7164V84.1621H19.4261ZM28.5917 83.2278C27.8304 83.9792 26.906 84.3549 25.8183 84.3549C24.7307 84.3549 23.8063 83.9792 23.0449 83.2278C22.2935 82.4763 21.9178 81.5519 21.9178 80.4544C21.9178 79.3569 22.2935 78.4324 23.0449 77.681C23.8063 76.9295 24.7307 76.5538 25.8183 76.5538C26.906 76.5538 27.8304 76.9295 28.5917 77.681C29.3531 78.4324 29.7337 79.3569 29.7337 80.4544C29.7337 81.5519 29.3531 82.4763 28.5917 83.2278ZM25.8183 83.0943C26.5599 83.0943 27.1828 82.8422 27.6871 82.3379C28.1913 81.8336 28.4434 81.2058 28.4434 80.4544C28.4434 79.7029 28.1913 79.0751 27.6871 78.5708C27.1828 78.0666 26.5599 77.8144 25.8183 77.8144C25.0867 77.8144 24.4687 78.0666 23.9645 78.5708C23.4602 79.0751 23.2081 79.7029 23.2081 80.4544C23.2081 81.2058 23.4602 81.8336 23.9645 82.3379C24.4687 82.8422 25.0867 83.0943 25.8183 83.0943ZM37.043 76.7466H38.3333V84.1621H37.043V82.8866C36.4004 83.8655 35.466 84.3549 34.24 84.3549C33.2018 84.3549 32.3169 83.9792 31.5852 83.2278C30.8536 82.4664 30.4877 81.542 30.4877 80.4544C30.4877 79.3668 30.8536 78.4472 31.5852 77.6958C32.3169 76.9345 33.2018 76.5538 34.24 76.5538C35.466 76.5538 36.4004 77.0432 37.043 78.0221V76.7466ZM34.4031 83.1091C35.1546 83.1091 35.7824 82.857 36.2867 82.3527C36.7909 81.8386 37.043 81.2058 37.043 80.4544C37.043 79.7029 36.7909 79.0751 36.2867 78.5708C35.7824 78.0567 35.1546 77.7996 34.4031 77.7996C33.6616 77.7996 33.0387 78.0567 32.5344 78.5708C32.0302 79.0751 31.778 79.7029 31.778 80.4544C31.778 81.2058 32.0302 81.8386 32.5344 82.3527C33.0387 82.857 33.6616 83.1091 34.4031 83.1091ZM46.0764 73.7804H47.3667V84.1621H46.0764V82.8866C45.4338 83.8655 44.4994 84.3549 43.2734 84.3549C42.2352 84.3549 41.3503 83.9792 40.6186 83.2278C39.887 82.4664 39.5211 81.542 39.5211 80.4544C39.5211 79.3668 39.887 78.4472 40.6186 77.6958C41.3503 76.9345 42.2352 76.5538 43.2734 76.5538C44.4994 76.5538 45.4338 77.0432 46.0764 78.0221V73.7804ZM43.4365 83.1091C44.188 83.1091 44.8158 82.857 45.3201 82.3527C45.8243 81.8386 46.0764 81.2058 46.0764 80.4544C46.0764 79.7029 45.8243 79.0751 45.3201 78.5708C44.8158 78.0567 44.188 77.7996 43.4365 77.7996C42.695 77.7996 42.0721 78.0567 41.5678 78.5708C41.0636 79.0751 40.8114 79.7029 40.8114 80.4544C40.8114 81.2058 41.0636 81.8386 41.5678 82.3527C42.0721 82.857 42.695 83.1091 43.4365 83.1091ZM58.6141 84.1621L56.2856 80.1874H53.8385V84.1621H52.4592V73.7804H56.6119C57.5017 73.7804 58.2631 74.0968 58.8959 74.7296C59.5286 75.3525 59.845 76.1089 59.845 76.9987C59.845 77.6711 59.6423 78.2841 59.237 78.8378C58.8415 79.3915 58.3273 79.782 57.6945 80.0094L60.1417 84.1621H58.6141ZM53.8385 75.0707V78.9416H56.6119C57.126 78.9416 57.5611 78.7537 57.917 78.378C58.2828 77.9924 58.4658 77.5327 58.4658 76.9987C58.4658 76.4648 58.2828 76.01 57.917 75.6343C57.5611 75.2586 57.126 75.0707 56.6119 75.0707H53.8385ZM61.5686 81.0476C61.6972 81.7101 61.9987 82.2242 62.4733 82.59C62.9578 82.9559 63.551 83.1388 64.253 83.1388C65.2319 83.1388 65.9438 82.7779 66.3887 82.0561L67.4862 82.679C66.7644 83.7963 65.6768 84.3549 64.2234 84.3549C63.0468 84.3549 62.0877 83.9891 61.3462 83.2574C60.6145 82.5159 60.2487 81.5815 60.2487 80.4544C60.2487 79.3371 60.6095 78.4077 61.3313 77.6661C62.0531 76.9246 62.9874 76.5538 64.1344 76.5538C65.222 76.5538 66.1069 76.9394 66.7891 77.7106C67.4812 78.4719 67.8273 79.3915 67.8273 80.4692C67.8273 80.657 67.8125 80.8499 67.7828 81.0476H61.5686ZM64.1344 77.7699C63.4423 77.7699 62.8688 77.9677 62.414 78.3632C61.9592 78.7488 61.6774 79.2679 61.5686 79.9204H66.5222C66.4134 79.2184 66.1366 78.6845 65.6916 78.3187C65.2467 77.9529 64.7276 77.7699 64.1344 77.7699ZM73.052 76.5538C74.0902 76.5538 74.9751 76.9345 75.7068 77.6958C76.4384 78.4472 76.8043 79.3668 76.8043 80.4544C76.8043 81.542 76.4384 82.4664 75.7068 83.2278C74.9751 83.9792 74.0902 84.3549 73.052 84.3549C71.826 84.3549 70.8916 83.8655 70.249 82.8866V87.1283H68.9587V76.7466H70.249V78.0221C70.8916 77.0432 71.826 76.5538 73.052 76.5538ZM72.8889 83.1091C73.6304 83.1091 74.2533 82.857 74.7576 82.3527C75.2619 81.8386 75.514 81.2058 75.514 80.4544C75.514 79.7029 75.2619 79.0751 74.7576 78.5708C74.2533 78.0567 73.6304 77.7996 72.8889 77.7996C72.1375 77.7996 71.5096 78.0567 71.0054 78.5708C70.5011 79.0751 70.249 79.7029 70.249 80.4544C70.249 81.2058 70.5011 81.8386 71.0054 82.3527C71.5096 82.857 72.1375 83.1091 72.8889 83.1091ZM84.2508 83.2278C83.4894 83.9792 82.565 84.3549 81.4774 84.3549C80.3898 84.3549 79.4653 83.9792 78.704 83.2278C77.9525 82.4763 77.5768 81.5519 77.5768 80.4544C77.5768 79.3569 77.9525 78.4324 78.704 77.681C79.4653 76.9295 80.3898 76.5538 81.4774 76.5538C82.565 76.5538 83.4894 76.9295 84.2508 77.681C85.0121 78.4324 85.3928 79.3569 85.3928 80.4544C85.3928 81.5519 85.0121 82.4763 84.2508 83.2278ZM81.4774 83.0943C82.2189 83.0943 82.8418 82.8422 83.3461 82.3379C83.8503 81.8336 84.1025 81.2058 84.1025 80.4544C84.1025 79.7029 83.8503 79.0751 83.3461 78.5708C82.8418 78.0666 82.2189 77.8144 81.4774 77.8144C80.7457 77.8144 80.1277 78.0666 79.6235 78.5708C79.1192 79.0751 78.8671 79.7029 78.8671 80.4544C78.8671 81.2058 79.1192 81.8336 79.6235 82.3379C80.1277 82.8422 80.7457 83.0943 81.4774 83.0943ZM87.8523 77.9924C88.2775 77.0729 89.0487 76.6131 90.1659 76.6131V77.9627C89.5332 77.9331 88.9894 78.1012 88.5345 78.467C88.0797 78.8328 87.8523 79.4211 87.8523 80.2319V84.1621H86.562V76.7466H87.8523V77.9924ZM95.2844 77.9924H93.3119V82.0116C93.3119 82.3774 93.3811 82.6395 93.5196 82.7977C93.6679 82.946 93.8903 83.0251 94.1869 83.035C94.4836 83.035 94.8494 83.0251 95.2844 83.0053V84.1621C94.1573 84.3104 93.3317 84.2214 92.8077 83.8952C92.2836 83.559 92.0216 82.9311 92.0216 82.0116V77.9924H90.5533V76.7466H92.0216V75.0559L93.3119 74.6703V76.7466H95.2844V77.9924Z" fill="#333232" style="fill:#333232;fill:color(display-p3 0.2000 0.1975 0.1975);fill-opacity:1;"/>
<path opacity="0.5" fill-rule="evenodd" clip-rule="evenodd" d="M23.6735 36.1182C24.7187 36.1182 25.566 36.9482 25.566 37.972C25.566 41.5201 25.57 43.9947 25.8263 45.8619C26.0752 47.6757 26.5305 48.636 27.2289 49.3202C27.9273 50.0044 28.9078 50.4504 30.7593 50.6943C32.6653 50.9452 35.1915 50.9492 38.8135 50.9492H53.9535C57.5755 50.9492 60.1016 50.9452 62.0077 50.6943C63.8593 50.4504 64.8396 50.0044 65.5381 49.3202C66.2365 48.636 66.6917 47.6757 66.9408 45.8619C67.1969 43.9947 67.201 41.5201 67.201 37.972C67.201 36.9482 68.0483 36.1182 69.0935 36.1182C70.1386 36.1182 70.986 36.9482 70.986 37.972V38.1077C70.986 41.4882 70.9859 44.2129 70.692 46.356C70.3867 48.5809 69.7334 50.4541 68.2146 51.9419C66.6955 53.4299 64.7834 54.0699 62.5121 54.3689C60.3244 54.6569 57.5429 54.6569 54.092 54.6569H38.675C35.2242 54.6569 32.4426 54.6569 30.255 54.3689C27.9837 54.0699 26.0714 53.4299 24.5525 51.9421C23.0337 50.4541 22.3804 48.5809 22.075 46.356C21.7809 44.2129 21.781 41.4882 21.781 38.1077C21.781 38.0625 21.781 38.0173 21.781 37.972C21.781 36.9482 22.6283 36.1182 23.6735 36.1182Z" fill="#00FFB2" style="fill:#00FFB2;fill:color(display-p3 0.0000 1.0000 0.6980);fill-opacity:1;"/>
<path fill-rule="evenodd" clip-rule="evenodd" d="M46.3843 6.45605C46.9157 6.45605 47.4224 6.67486 47.7809 7.05898L57.8742 17.8733C58.5795 18.6289 58.526 19.8015 57.7546 20.4924C56.9833 21.1833 55.7862 21.1308 55.0809 20.3751L48.2768 13.085V40.4438C48.2768 41.4676 47.4294 42.2976 46.3843 42.2976C45.3391 42.2976 44.4918 41.4676 44.4918 40.4438V13.085L37.6877 20.3751C36.9824 21.1308 35.7853 21.1833 35.014 20.4924C34.2426 19.8015 34.189 18.6289 34.8942 17.8733L44.9876 7.05898C45.3462 6.67486 45.8528 6.45605 46.3843 6.45605Z" fill="#001B57" style="fill:#001B57;fill:color(display-p3 0.0000 0.1059 0.3412);fill-opacity:1;"/>
</svg>
