<svg width="61" height="60" viewBox="0 0 61 60" fill="none" xmlns="http://www.w3.org/2000/svg">
<path opacity="0.5" fill-rule="evenodd" clip-rule="evenodd" d="M7.67351 35.6895C8.71869 35.6895 9.566 36.5195 9.566 37.5433C9.566 41.0914 9.57001 43.566 9.82628 45.4332C10.0752 47.247 10.5305 48.2073 11.2289 48.8915C11.9273 49.5757 12.9078 50.0216 14.7593 50.2656C16.6653 50.5165 19.1915 50.5205 22.8135 50.5205H37.9535C41.5755 50.5205 44.1016 50.5165 46.0077 50.2656C47.8593 50.0216 48.8396 49.5757 49.5381 48.8915C50.2365 48.2073 50.6917 47.247 50.9408 45.4332C51.1969 43.566 51.201 41.0914 51.201 37.5433C51.201 36.5195 52.0483 35.6895 53.0935 35.6895C54.1386 35.6895 54.986 36.5195 54.986 37.5433V37.679C54.986 41.0595 54.9859 43.7842 54.692 45.9273C54.3867 48.1522 53.7334 50.0253 52.2146 51.5131C50.6955 53.0012 48.7834 53.6411 46.5121 53.9402C44.3244 54.2282 41.5429 54.2282 38.092 54.2282H22.675C19.2242 54.2282 16.4426 54.2282 14.255 53.9402C11.9837 53.6411 10.0714 53.0012 8.55251 51.5134C7.03366 50.0253 6.3804 48.1522 6.07503 45.9273C5.78091 43.7842 5.78096 41.0595 5.78101 37.679C5.78101 37.6338 5.78101 37.5886 5.78101 37.5433C5.78101 36.5195 6.62832 35.6895 7.67351 35.6895Z" fill="#00FFB2" style="fill:#00FFB2;fill:color(display-p3 0.0000 1.0000 0.6980);fill-opacity:1;"/>
<path fill-rule="evenodd" clip-rule="evenodd" d="M30.3843 6.02734C30.9157 6.02734 31.4224 6.24615 31.7809 6.63027L41.8742 17.4445C42.5795 18.2002 42.526 19.3728 41.7546 20.0637C40.9833 20.7546 39.7862 20.7021 39.0809 19.9464L32.2768 12.6563V40.0151C32.2768 41.0389 31.4294 41.8689 30.3843 41.8689C29.3391 41.8689 28.4918 41.0389 28.4918 40.0151V12.6563L21.6877 19.9464C20.9824 20.7021 19.7853 20.7546 19.014 20.0637C18.2426 19.3728 18.189 18.2002 18.8942 17.4445L28.9876 6.63027C29.3462 6.24615 29.8528 6.02734 30.3843 6.02734Z" fill="#001B57" style="fill:#001B57;fill:color(display-p3 0.0000 0.1059 0.3412);fill-opacity:1;"/>
</svg>
