<svg width="36" height="35" viewBox="0 0 36 35" fill="none" xmlns="http://www.w3.org/2000/svg">
<path d="M18.0003 19.9713C23.3239 19.9713 27.6431 15.6521 27.6431 10.3284C27.6431 5.00474 23.3239 0.685547 18.0003 0.685547C12.6766 0.685547 8.35742 5.00474 8.35742 10.3284C8.35742 15.6521 12.6766 19.9713 18.0003 19.9713ZM26.5717 22.1141H22.882C21.3954 22.7972 19.7414 23.1855 18.0003 23.1855C16.2592 23.1855 14.6119 22.7972 13.1186 22.1141H9.42885C4.69448 22.1141 0.857422 25.9512 0.857422 30.6855V31.757C0.857422 33.5315 2.29715 34.9713 4.07171 34.9713H31.9289C33.7034 34.9713 35.1431 33.5315 35.1431 31.757V30.6855C35.1431 25.9512 31.3061 22.1141 26.5717 22.1141Z" fill="black" style="fill:black;fill-opacity:1;"/>
</svg>
